<svg width="84" height="26" viewBox="0 0 84 26" fill="none" xmlns="http://www.w3.org/2000/svg">
<g clip-path="url(#clip0_60_1199)">
<path fill-rule="evenodd" clip-rule="evenodd" d="M51.8 19.6599C46.967 23.2329 39.938 25.1369 33.875 25.1369C25.7877 25.1771 17.976 22.2006 11.966 16.7889C11.527 16.3789 11.907 15.8219 12.466 16.1449C18.2859 19.4942 24.802 21.4511 31.5043 21.8626C38.2065 22.2741 44.913 21.129 51.099 18.5169C51.917 18.1959 52.591 19.0779 51.8 19.6599Z" fill="#041E42"/>
<path fill-rule="evenodd" clip-rule="evenodd" d="M53.821 17.3461C53.206 16.5551 49.721 16.9651 48.168 17.1701C47.699 17.2291 47.611 16.819 48.051 16.526C50.834 14.564 55.373 15.1491 55.901 15.7941C56.429 16.4391 55.755 21.0081 53.148 23.1751C52.738 23.4971 52.357 23.321 52.533 22.882C53.118 21.418 54.436 18.1661 53.821 17.3461Z" fill="#041E42"/>
<path fill-rule="evenodd" clip-rule="evenodd" d="M48.256 2.75982V0.859822C48.2527 0.79736 48.2626 0.734906 48.285 0.676503C48.3074 0.6181 48.3418 0.565062 48.386 0.520833C48.4302 0.476603 48.4833 0.442156 48.5417 0.419759C48.6001 0.397361 48.6625 0.387514 48.725 0.390828H57.216C57.3443 0.387577 57.4686 0.434948 57.5622 0.522725C57.6558 0.610501 57.711 0.731615 57.716 0.859822V2.47081C57.716 2.73481 57.482 3.08583 57.072 3.67083L52.679 9.93883C54.3531 9.84865 56.0215 10.2011 57.516 10.9608C57.6457 11.035 57.7542 11.1414 57.8311 11.2695C57.9079 11.3977 57.9506 11.5434 57.955 11.6928V13.7138C57.955 14.0068 57.662 14.3288 57.34 14.1528C55.9541 13.4355 54.4155 13.0635 52.8549 13.0686C51.2944 13.0736 49.7582 13.4555 48.377 14.1818C48.3071 14.2068 48.2322 14.2146 48.1586 14.2044C48.0851 14.1941 48.0151 14.1663 47.9547 14.1231C47.8943 14.08 47.8452 14.0229 47.8116 13.9567C47.7781 13.8904 47.7611 13.8171 47.762 13.7428V11.8068C47.7332 11.3542 47.8457 10.9037 48.084 10.5178L53.184 3.22481H48.761C48.6327 3.22806 48.5084 3.18069 48.4148 3.09292C48.3212 3.00514 48.266 2.88403 48.261 2.75582L48.256 2.75982ZM17.297 14.5598H14.716C14.6005 14.5483 14.492 14.499 14.4072 14.4197C14.3225 14.3403 14.2662 14.2353 14.247 14.1208V0.885823C14.252 0.757616 14.3072 0.636502 14.4008 0.548726C14.4944 0.460949 14.6187 0.413578 14.747 0.416829H17.147C17.2658 0.418445 17.3797 0.464324 17.4665 0.545522C17.5532 0.626719 17.6066 0.737383 17.616 0.855824V2.58382H17.675C17.9031 1.86951 18.3523 1.24618 18.9578 0.803883C19.5633 0.361588 20.2937 0.123219 21.0435 0.123219C21.7933 0.123219 22.5238 0.361588 23.1293 0.803883C23.7348 1.24618 24.184 1.86951 24.412 2.58382C24.669 1.84738 25.1538 1.21193 25.7963 0.769612C26.4387 0.327293 27.2053 0.101105 27.985 0.12383C28.5638 0.112153 29.137 0.239013 29.6567 0.493855C30.1765 0.748697 30.6278 1.12413 30.973 1.58883C31.793 2.70183 31.617 4.31282 31.617 5.74782V14.1248C31.6121 14.253 31.5568 14.3741 31.4632 14.4619C31.3696 14.5497 31.2453 14.5971 31.117 14.5938H28.569C28.447 14.5865 28.332 14.5347 28.2455 14.4483C28.1591 14.3619 28.1074 14.2468 28.1 14.1248V7.09581C28.1393 6.26546 28.1196 5.43338 28.041 4.60582C27.9873 4.25354 27.7974 3.93643 27.5121 3.72283C27.2269 3.50923 26.8692 3.41623 26.516 3.46383C26.1798 3.47353 25.8538 3.58129 25.578 3.77388C25.3023 3.96648 25.0889 4.23549 24.964 4.54781C24.7518 5.37943 24.6728 6.23945 24.73 7.09581V14.1248C24.7251 14.253 24.6698 14.3741 24.5762 14.4619C24.4827 14.5497 24.3583 14.5971 24.23 14.5938H21.653C21.531 14.5865 21.416 14.5347 21.3295 14.4483C21.2431 14.3619 21.1914 14.2468 21.184 14.1248V7.09581C21.184 5.63081 21.418 3.43483 19.602 3.43483C17.757 3.43483 17.815 5.54381 17.815 7.09581V14.1248C17.7966 14.25 17.7327 14.3641 17.6354 14.4451C17.5382 14.5261 17.4145 14.5684 17.288 14.5638L17.297 14.5598ZM65.039 0.119832C68.876 0.119832 70.956 3.39983 70.956 7.58883C70.956 11.6308 68.671 14.8528 65.039 14.8528C61.29 14.8528 59.239 11.5728 59.239 7.47182C59.21 3.34182 61.289 0.119832 65.039 0.119832ZM65.039 2.84383C63.139 2.84383 63.018 5.45082 63.018 7.06182C63.018 8.67282 62.989 12.1288 65.01 12.1288C67.002 12.1288 67.119 9.34582 67.119 7.64782C67.155 6.46418 67.0268 5.28127 66.738 4.13283C66.658 3.74928 66.4416 3.4077 66.129 3.17144C65.8165 2.93517 65.4289 2.82021 65.038 2.84783L65.039 2.84383ZM75.905 14.5598H73.328C73.206 14.5525 73.091 14.5007 73.0045 14.4143C72.9181 14.3279 72.8664 14.2128 72.859 14.0908V0.826833C72.8752 0.705581 72.9348 0.59428 73.0267 0.51357C73.1186 0.43286 73.2367 0.38818 73.359 0.387807H75.759C75.868 0.391451 75.9729 0.430682 76.0576 0.499471C76.1423 0.568259 76.2021 0.662842 76.228 0.768819V2.78981H76.287C77.019 0.973815 78.015 0.124806 79.802 0.124806C80.3966 0.0977921 80.9879 0.226839 81.5172 0.499104C82.0464 0.77137 82.4952 1.17738 82.819 1.67681C83.493 2.73181 83.493 4.51781 83.493 5.80681V14.1548C83.4753 14.273 83.4143 14.3803 83.322 14.4561C83.2296 14.5319 83.1123 14.5706 82.993 14.5648H80.416C80.3047 14.5543 80.1995 14.5091 80.1154 14.4355C80.0312 14.3619 79.9723 14.2637 79.947 14.1548V6.94982C79.947 5.48582 80.123 3.37682 78.336 3.37682C78.0125 3.39192 77.6999 3.49914 77.4352 3.68587C77.1706 3.8726 76.9647 4.13104 76.842 4.43081C76.5287 5.23202 76.389 6.0906 76.432 6.94982V14.0968C76.4158 14.2255 76.3535 14.344 76.2565 14.4303C76.1596 14.5165 76.0347 14.5647 75.905 14.5658V14.5598ZM41.49 8.23281C41.5857 9.17601 41.4236 10.1275 41.021 10.9858C40.8577 11.325 40.605 11.6134 40.2902 11.8198C39.9753 12.0263 39.6102 12.1432 39.234 12.1578C38.234 12.1578 37.652 11.3958 37.652 10.2828C37.652 8.08283 39.614 7.67583 41.489 7.67583L41.49 8.23281ZM44.097 14.5328C44.0135 14.6057 43.9093 14.6506 43.799 14.6612C43.6887 14.6718 43.5778 14.6475 43.482 14.5918C42.8854 14.109 42.3795 13.5239 41.988 12.8638C41.4773 13.4882 40.8266 13.9834 40.0887 14.3091C39.3508 14.6349 38.5465 14.7821 37.741 14.7388C37.2125 14.7698 36.6835 14.6861 36.1904 14.4933C35.6974 14.3005 35.2519 14.0032 34.8846 13.6219C34.5172 13.2407 34.2368 12.7844 34.0625 12.2845C33.8883 11.7845 33.8243 11.2528 33.875 10.7258C33.8446 9.82502 34.0927 8.93677 34.5853 8.182C35.0779 7.42723 35.7912 6.84264 36.628 6.50783C38.2001 5.98641 39.8357 5.68093 41.49 5.59981V5.27782C41.5776 4.63459 41.4651 3.97999 41.168 3.40282C40.9996 3.18448 40.7816 3.00942 40.532 2.8922C40.2825 2.77498 40.0086 2.71897 39.733 2.72881C39.2563 2.68721 38.7809 2.82239 38.3973 3.10857C38.0138 3.39476 37.7489 3.81196 37.653 4.28081C37.594 4.51481 37.453 4.74981 37.214 4.74981L34.724 4.48583C34.6639 4.47738 34.6061 4.45687 34.554 4.42553C34.502 4.39419 34.4569 4.35267 34.4213 4.30346C34.3857 4.25424 34.3604 4.19834 34.347 4.13912C34.3335 4.0799 34.3322 4.01858 34.343 3.95882C34.929 0.912821 37.653 0.00481113 40.113 0.00481113C41.5267 -0.0556416 42.9138 0.402797 44.013 1.29381C45.272 2.46581 45.155 4.04681 45.155 5.74581V9.75881C45.1714 10.6505 45.5157 11.5049 46.122 12.1588C46.298 12.3928 46.327 12.6858 46.122 12.8328C45.561 13.2748 44.622 14.0948 44.097 14.5328ZM7.66101 8.23281C7.75675 9.17601 7.59464 10.1275 7.192 10.9858C7.02865 11.325 6.776 11.6134 6.46117 11.8198C6.14634 12.0263 5.78123 12.1432 5.40502 12.1578C4.40502 12.1578 3.82301 11.3958 3.82301 10.2828C3.82301 8.08283 5.78501 7.67583 7.66001 7.67583L7.66101 8.23281ZM10.239 14.5328C10.1555 14.6057 10.0513 14.6506 9.941 14.6612C9.83068 14.6718 9.71982 14.6475 9.62401 14.5918C9.02744 14.109 8.52154 13.5239 8.13001 12.8638C7.61931 13.4882 6.96861 13.9834 6.2307 14.3091C5.49279 14.6349 4.68847 14.7821 3.88301 14.7388C3.35449 14.7698 2.82552 14.6861 2.33244 14.4933C1.83937 14.3005 1.39387 14.0032 1.02655 13.6219C0.659238 13.2407 0.378811 12.7844 0.204546 12.2845C0.0302803 11.7845 -0.0336902 11.2528 0.0170153 10.7258C-0.0133488 9.82502 0.234659 8.93677 0.727281 8.182C1.2199 7.42723 1.93319 6.84264 2.77001 6.50783C4.34208 5.98641 5.9777 5.68093 7.63201 5.59981V5.27782C7.71956 4.63459 7.60716 3.97999 7.31001 3.40282C7.14164 3.18448 6.92361 3.00942 6.67404 2.8922C6.42448 2.77498 6.15055 2.71897 5.875 2.72881C5.39826 2.68721 4.92288 2.82239 4.53934 3.10857C4.15579 3.39476 3.89088 3.81196 3.79502 4.28081C3.73602 4.51481 3.59 4.74981 3.356 4.74981L0.866014 4.48583C0.805878 4.47738 0.748063 4.45687 0.696047 4.42553C0.64403 4.39419 0.598875 4.35267 0.563295 4.30346C0.527716 4.25424 0.502438 4.19834 0.488985 4.13912C0.475532 4.0799 0.474178 4.01858 0.485002 3.95882C1.071 0.912821 3.79501 0.00481113 6.25501 0.00481113C7.66872 -0.0556416 9.05578 0.402797 10.155 1.29381C11.414 2.46581 11.297 4.04681 11.297 5.74581V9.75881C11.3135 10.6504 11.6577 11.5048 12.264 12.1588C12.44 12.3928 12.469 12.6858 12.264 12.8328C11.707 13.2718 10.77 14.0918 10.243 14.5328H10.239Z" fill="#041E42"/>
</g>
<defs>
<clipPath id="clip0_60_1199">
<rect width="83.493" height="25.138" fill="white"/>
</clipPath>
</defs>
</svg>
