<svg width="16" height="16" viewBox="0 0 16 16" fill="none" xmlns="http://www.w3.org/2000/svg">
<g clip-path="url(#clip0_77_837)">
<path d="M9.67027 16C10.2052 16 10.6718 15.5335 10.6718 14.9985V12.6596H11.3405C11.7418 12.6596 12.0092 12.392 12.0092 11.9909V5.31055H3.99097V11.9909C3.99097 12.3922 4.25845 12.6596 4.65968 12.6596H5.32845V14.9986C5.32845 15.5335 5.79487 16.0001 6.32995 16.0001C6.86487 16.0001 7.33134 15.5335 7.33134 14.9986V12.6596H8.66882V14.9986C8.66877 15.5335 9.13529 16 9.67027 16Z" fill="black"/>
<path d="M13.6795 11.9909C14.2144 11.9909 14.6809 11.5244 14.6809 10.9894V6.31162C14.6809 5.77948 14.2144 5.31055 13.6795 5.31055C13.1445 5.31055 12.678 5.77948 12.678 6.31162V10.9894C12.678 11.5244 13.1444 11.9909 13.6795 11.9909Z" fill="black"/>
<path d="M2.32073 11.9909C2.85575 11.9909 3.32223 11.5244 3.32223 10.9894V6.31162C3.32223 5.77948 2.85581 5.31055 2.32073 5.31055C1.78575 5.31055 1.31934 5.77948 1.31934 6.31162V10.9894C1.31934 11.5244 1.78575 11.9909 2.32073 11.9909Z" fill="black"/>
<path d="M11.2067 0.100908C11.073 -0.033636 10.874 -0.033636 10.7403 0.100908L9.84336 0.994825L9.80198 1.03615C9.27016 0.769837 8.67389 0.636841 8.00988 0.63556C8.00662 0.63556 8.00342 0.635453 8.00016 0.635453H8.00005C7.99669 0.635453 7.99359 0.63556 7.99023 0.63556C7.32627 0.636841 6.73 0.769837 6.19823 1.03615L6.15675 0.994825L5.2599 0.100908C5.1261 -0.033636 4.92717 -0.033636 4.79348 0.100908C4.65968 0.234704 4.65968 0.433264 4.79348 0.566953L5.66107 1.43471C5.38152 1.62136 5.12802 1.84977 4.90757 2.11101C4.37981 2.73658 4.04318 3.55073 3.99689 4.43285C3.99647 4.44203 3.99556 4.45111 3.99513 4.46029C3.9923 4.52036 3.99097 4.58074 3.99097 4.64134H12.0092C12.0092 4.58074 12.0078 4.52036 12.005 4.46029C12.0046 4.45111 12.0037 4.44203 12.0032 4.43285C11.957 3.55073 11.6202 2.73653 11.0925 2.11106C10.8721 1.84982 10.6185 1.62142 10.339 1.43476L11.2067 0.567007C11.3405 0.433264 11.3405 0.234704 11.2067 0.100908ZM6.32867 3.47374C6.052 3.47374 5.8277 3.24945 5.8277 2.97278C5.8277 2.69611 6.052 2.47182 6.32867 2.47182C6.60534 2.47182 6.82963 2.69611 6.82963 2.97278C6.82963 3.24945 6.60534 3.47374 6.32867 3.47374ZM9.67149 3.47374C9.39483 3.47374 9.17053 3.24945 9.17053 2.97278C9.17053 2.69611 9.39483 2.47182 9.67149 2.47182C9.94816 2.47182 10.1725 2.69611 10.1725 2.97278C10.1725 3.24945 9.94816 3.47374 9.67149 3.47374Z" fill="black"/>
</g>
<defs>
<clipPath id="clip0_77_837">
<rect width="16" height="16" fill="white"/>
</clipPath>
</defs>
</svg>
