<svg width="38" height="25" viewBox="0 0 38 25" fill="none" xmlns="http://www.w3.org/2000/svg">
<g clip-path="url(#clip0_77_899)">
<path d="M34.3872 0.100098H3.61287C3.48468 0.100098 3.35626 0.100098 3.2283 0.100777C3.12026 0.101683 3.01245 0.102816 2.90441 0.10576C2.66909 0.112102 2.43173 0.126144 2.19935 0.167818C1.9663 0.207746 1.74051 0.282172 1.52939 0.388646C1.10499 0.604508 0.760026 0.949472 0.544163 1.37388C0.4375 1.58507 0.363065 1.81105 0.323336 2.04429C0.281209 2.27689 0.267393 2.51403 0.261051 2.74912C0.258291 2.85706 0.25663 2.96503 0.256068 3.073C0.255615 3.20074 0.255615 3.32894 0.255615 3.45736V20.7426C0.255615 20.871 0.255615 20.999 0.256068 21.1274C0.256748 21.2352 0.258107 21.3433 0.261051 21.4513C0.267393 21.6859 0.281435 21.9233 0.323336 22.1557C0.362983 22.3889 0.437342 22.6149 0.543937 22.8261C0.651108 23.037 0.790999 23.2297 0.958413 23.3968C1.12554 23.5643 1.31819 23.7042 1.52917 23.8113C1.74365 23.9207 1.96335 23.9902 2.19958 24.0326C2.43173 24.074 2.66909 24.0881 2.90441 24.0944C3.01245 24.0969 3.12026 24.0983 3.2283 24.099C3.35626 24.0999 3.48468 24.0999 3.61287 24.0999H34.3872C34.5152 24.0999 34.6436 24.0999 34.7715 24.099C34.8794 24.0985 34.9872 24.0969 35.0956 24.0944C35.3305 24.0881 35.5679 24.074 35.8007 24.0326C36.0338 23.9926 36.2596 23.9181 36.4707 23.8113C36.8949 23.5952 37.2397 23.2503 37.4559 22.8261C37.5653 22.6116 37.6346 22.3919 37.6765 22.1557C37.7186 21.9233 37.7322 21.6859 37.7386 21.4513C37.7415 21.3433 37.7431 21.2352 37.7435 21.1274C37.7444 20.999 37.7444 20.871 37.7444 20.7426V3.45758C37.7444 3.32916 37.7444 3.20097 37.7435 3.07278C37.7431 2.96488 37.7414 2.85699 37.7386 2.74912C37.7322 2.51403 37.7186 2.27689 37.6765 2.04429C37.6371 1.81101 37.5627 1.585 37.4559 1.37388C37.2399 0.949546 36.895 0.604611 36.4707 0.388646C36.2595 0.282282 36.0337 0.207934 35.8007 0.168045C35.5679 0.126144 35.3305 0.112328 35.0956 0.105986C34.9876 0.103243 34.8796 0.101582 34.7715 0.101004C34.6436 0.100098 34.5152 0.100098 34.3872 0.100098Z" fill="#F3F5F6"/>
<path d="M34.3871 0.899902L34.7658 0.900582C34.8682 0.901261 34.9708 0.902394 35.0739 0.905112C35.2535 0.910094 35.4632 0.919833 35.6589 0.954939C35.8288 0.985516 35.9714 1.03195 36.1082 1.1017C36.382 1.2409 36.6044 1.46354 36.7433 1.73746C36.8126 1.87336 36.8588 2.01514 36.8894 2.18659C36.9243 2.38001 36.934 2.59042 36.9388 2.77094C36.9417 2.87286 36.9431 2.97478 36.9433 3.07896C36.9444 3.20512 36.9444 3.33104 36.9444 3.45743V20.7427C36.9444 20.8691 36.9444 20.995 36.9435 21.1236C36.9431 21.2256 36.9417 21.3275 36.939 21.4294C36.934 21.6097 36.9243 21.8201 36.889 22.0158C36.8633 22.1714 36.814 22.3223 36.7429 22.4631C36.6037 22.7371 36.3809 22.9598 36.1069 23.0989C35.971 23.1682 35.8288 23.2146 35.6605 23.2449C35.4609 23.2805 35.2421 23.2902 35.0775 23.2948C34.974 23.297 34.8709 23.2986 34.7652 23.2991C34.6395 23.3 34.5131 23.3 34.3871 23.3H3.60786C3.48329 23.3 3.35872 23.3 3.23188 23.2991C3.12995 23.2986 3.02803 23.2973 2.92612 23.295C2.75761 23.2905 2.53882 23.2805 2.34087 23.2452C2.18436 23.2191 2.03271 23.1695 1.89106 23.0979C1.7552 23.0289 1.63119 22.9387 1.5237 22.8307C1.41587 22.7231 1.32581 22.599 1.25689 22.4631C1.18572 22.3215 1.13639 22.1699 1.11058 22.0135C1.07525 21.8181 1.06528 21.6086 1.06075 21.4296C1.05819 21.3273 1.05668 21.225 1.05622 21.1227L1.05554 20.8222V3.37815L1.05599 3.07806C1.05646 2.97559 1.05797 2.87314 1.06052 2.77071C1.06551 2.59133 1.07525 2.38183 1.11081 2.18478C1.13666 2.0287 1.18599 1.87743 1.25712 1.7361C1.32597 1.60066 1.41566 1.477 1.52438 1.36851C1.63213 1.26059 1.75627 1.17039 1.8922 1.10125C2.03349 1.03026 2.18467 0.980942 2.34065 0.954939C2.53656 0.919833 2.74652 0.910094 2.92635 0.905112C3.02872 0.902394 3.13132 0.901261 3.23302 0.900582L3.61284 0.899902H34.3871Z" fill="white"/>
<path d="M10.1098 8.20181C10.4278 7.80432 10.6434 7.27049 10.5865 6.7251C10.1213 6.7482 9.55376 7.03199 9.22489 7.42993C8.92978 7.77057 8.66863 8.32661 8.73658 8.84912C9.25886 8.89442 9.7807 8.5882 10.1098 8.20181Z" fill="black"/>
<path d="M10.5806 8.95128C9.82187 8.90599 9.17727 9.38161 8.81512 9.38161C8.45273 9.38161 7.89806 8.97393 7.29809 8.98503C6.51738 8.99636 5.79306 9.43801 5.39671 10.1401C4.58179 11.5444 5.18154 13.6281 5.97425 14.7718C6.35906 15.3381 6.82291 15.9609 7.43398 15.9385C8.01153 15.9158 8.23779 15.5648 8.93946 15.5648C9.6409 15.5648 9.84474 15.9385 10.456 15.9272C11.0898 15.9158 11.4861 15.3609 11.8709 14.7947C12.3126 14.1492 12.4931 13.5264 12.5044 13.4924C12.4931 13.4811 11.2823 13.0166 11.2709 11.6236C11.2596 10.4572 12.2218 9.90231 12.267 9.86811C11.7237 9.06453 10.8748 8.97393 10.5804 8.95128" fill="black"/>
<path d="M18.1422 7.37305C19.7906 7.37305 20.9386 8.50935 20.9386 10.1636C20.9386 11.8238 19.767 12.966 18.101 12.966H16.2759V15.8687H14.9573V7.37305H18.1422ZM16.2759 11.8591H17.7889C18.9372 11.8591 19.5904 11.241 19.5904 10.1695C19.5904 9.09822 18.9369 8.48579 17.7947 8.48579H16.2759V11.8591Z" fill="black"/>
<path d="M21.2657 14.1081C21.2657 13.0189 22.0958 12.395 23.6265 12.3007L25.269 12.2006V11.7295C25.269 11.041 24.8157 10.6641 24.0092 10.6641C23.3438 10.6641 22.8609 11.0054 22.7613 11.5293H21.5717C21.6073 10.4286 22.6433 9.62793 24.0446 9.62793C25.5516 9.62793 26.5348 10.4168 26.5348 11.6414V15.8684H25.3163V14.8499H25.2868C24.9394 15.5151 24.1739 15.933 23.3438 15.933C22.1194 15.933 21.2657 15.2032 21.2657 14.1081ZM25.269 13.5607V13.0837L23.8031 13.1779C22.9787 13.2309 22.5493 13.5369 22.5493 14.0726C22.5493 14.5908 22.9966 14.9264 23.6971 14.9264C24.5918 14.9264 25.269 14.3552 25.269 13.5607Z" fill="black"/>
<path d="M27.6552 18.1409V17.1226C27.7376 17.1341 27.9376 17.1459 28.0436 17.1459C28.6263 17.1459 28.9561 16.899 29.1563 16.2628L29.2741 15.8862L27.0427 9.70459H28.4202L29.9746 14.7204H30.0041L31.5583 9.70459H32.9007L30.5868 16.1981C30.0569 17.6877 29.4505 18.1764 28.1672 18.1764C28.0671 18.1764 27.7433 18.1647 27.6552 18.1409Z" fill="black"/>
</g>
<defs>
<clipPath id="clip0_77_899">
<rect width="38" height="24" fill="white" transform="translate(0 0.100098)"/>
</clipPath>
</defs>
</svg>
