<svg width="16" height="16" viewBox="0 0 16 16" fill="none" xmlns="http://www.w3.org/2000/svg">
<g clip-path="url(#clip0_77_809)">
<path d="M10.9993 0C10.1463 0.0589997 9.14929 0.604996 8.5683 1.31599C8.0383 1.96099 7.60231 2.91898 7.77231 3.84998C8.7043 3.87898 9.66728 3.31998 10.2253 2.59698C10.7473 1.92399 11.1423 0.971994 10.9993 0Z" fill="black"/>
<path d="M14.3703 5.36811C13.5513 4.34112 12.4003 3.74512 11.3133 3.74512C9.87832 3.74512 9.27133 4.43212 8.27433 4.43212C7.24634 4.43212 6.46534 3.74712 5.22435 3.74712C4.00536 3.74712 2.70736 4.49212 1.88437 5.76611C0.727376 7.56011 0.925374 10.9331 2.80036 13.8061C3.47136 14.8341 4.36735 15.9901 5.53935 16.0001C6.58234 16.0101 6.87634 15.3311 8.28933 15.3241C9.70232 15.3161 9.97032 16.0091 11.0113 15.9981C12.1843 15.9891 13.1293 14.7081 13.8003 13.6801C14.2813 12.9431 14.4603 12.5721 14.8333 11.7401C12.1203 10.7071 11.6853 6.84911 14.3703 5.36811Z" fill="black"/>
</g>
<defs>
<clipPath id="clip0_77_809">
<rect width="16" height="16" fill="white"/>
</clipPath>
</defs>
</svg>
