<svg width="9" height="6" viewBox="0 0 9 6" fill="none" xmlns="http://www.w3.org/2000/svg">
<path d="M4.58745 5.3393L8.37478 1.5519C8.46245 1.4643 8.51074 1.34736 8.51074 1.22268C8.51074 1.09799 8.46245 0.981058 8.37478 0.89346L8.09593 0.614544C7.91423 0.433052 7.61892 0.433052 7.43749 0.614544L4.25712 3.79492L1.07322 0.611015C0.985558 0.523417 0.868691 0.475052 0.744075 0.475052C0.61932 0.475052 0.502454 0.523417 0.414718 0.611015L0.135941 0.889931C0.0482731 0.977598 -2.29153e-05 1.09446 -2.29207e-05 1.21915C-2.29262e-05 1.34383 0.048273 1.46077 0.135941 1.54837L3.92673 5.3393C4.01467 5.4271 4.13209 5.47533 4.25692 5.47505C4.38222 5.47533 4.49957 5.4271 4.58745 5.3393Z" fill="white"/>
</svg>
