<svg width="74" height="42" viewBox="0 0 74 42" fill="none" xmlns="http://www.w3.org/2000/svg">
<path d="M23.9 37.4411H20.891V25.5171H23.9V37.4411Z" fill="#041E42"/>
<path d="M48.162 28.9341C47.3852 28.5126 46.5149 28.293 45.6311 28.2959C45.2017 28.2723 44.7721 28.3377 44.3691 28.4878C43.9661 28.6378 43.5984 28.8693 43.289 29.168C42.9797 29.4666 42.7354 29.8261 42.5714 30.2236C42.4074 30.6211 42.3272 31.0481 42.336 31.478C42.327 31.908 42.4069 32.3352 42.5707 32.7329C42.7345 33.1306 42.9787 33.4902 43.2881 33.7891C43.5975 34.0879 43.9653 34.3197 44.3685 34.4697C44.7717 34.6198 45.2015 34.685 45.6311 34.6611C46.5142 34.6631 47.3838 34.4453 48.162 34.0278V37.228C47.2732 37.5005 46.3497 37.6431 45.4201 37.6518C44.5906 37.6902 43.762 37.5581 42.9856 37.2637C42.2092 36.9692 41.5015 36.5187 40.906 35.9399C40.3105 35.3613 39.8399 34.667 39.5232 33.8994C39.2066 33.1318 39.0506 32.3073 39.065 31.477C39.0515 30.6472 39.208 29.8232 39.525 29.0561C39.842 28.2891 40.3127 27.5953 40.908 27.0171C41.5035 26.439 42.211 25.9891 42.987 25.6948C43.763 25.4006 44.591 25.2682 45.4201 25.3061C46.3506 25.3087 47.2752 25.453 48.162 25.7349V28.9341ZM16.755 28.9341C15.9796 28.5118 15.1099 28.2924 14.227 28.2969C13.7973 28.2725 13.3672 28.3376 12.9636 28.4873C12.5601 28.637 12.1919 28.8683 11.882 29.167C11.572 29.4657 11.3272 29.8253 11.1628 30.2231C10.9985 30.621 10.9182 31.0486 10.927 31.479C10.9181 31.9095 10.9983 32.3373 11.1624 32.7353C11.3266 33.1334 11.5713 33.493 11.8811 33.792C12.191 34.0908 12.5594 34.3224 12.9632 34.4722C13.3669 34.6219 13.7971 34.6866 14.227 34.6621C15.1093 34.6651 15.9783 34.4472 16.755 34.0288V37.229C15.8655 37.5029 14.9408 37.6455 14.01 37.6528C13.1809 37.6912 12.3526 37.5591 11.5765 37.2646C10.8004 36.9702 10.0931 36.5197 9.49807 35.9409C8.90311 35.362 8.43311 34.6675 8.11715 33.8999C7.8012 33.1323 7.64596 32.308 7.66104 31.478C7.64728 30.6486 7.80352 29.8253 8.12014 29.0586C8.43677 28.2919 8.90707 27.598 9.50204 27.02C10.097 26.442 10.804 25.9922 11.5794 25.6977C12.3549 25.4033 13.1824 25.2706 14.011 25.3081C14.9421 25.3092 15.8676 25.453 16.755 25.7349V28.9341ZM57.628 28.3418C57.2161 28.3379 56.8077 28.4166 56.4267 28.5732C56.0458 28.7299 55.7001 28.9614 55.4101 29.2539C55.1201 29.5463 54.8916 29.8937 54.7382 30.2759C54.5849 30.658 54.5097 31.0673 54.5171 31.479C54.5093 31.891 54.5842 32.3001 54.7375 32.6826C54.8907 33.0651 55.119 33.4133 55.409 33.706C55.6991 33.9988 56.0449 34.2304 56.4261 34.3872C56.8072 34.544 57.2159 34.623 57.628 34.6191C58.0401 34.6229 58.4489 34.544 58.83 34.3872C59.2111 34.2304 59.557 33.9988 59.8471 33.706C60.1373 33.4134 60.3659 33.0656 60.5194 32.6831C60.673 32.3006 60.7484 31.8911 60.7411 31.479C60.7474 31.0668 60.671 30.6575 60.5164 30.2754C60.3618 29.8932 60.1321 29.5458 59.841 29.2539C59.5509 28.9615 59.2052 28.7304 58.8243 28.5737C58.4434 28.4171 58.0349 28.338 57.6231 28.3418H57.628ZM63.9231 31.478C63.9306 32.3016 63.7719 33.1185 63.4564 33.8794C63.141 34.6402 62.6752 35.3296 62.0871 35.9062C61.4989 36.4829 60.8003 36.935 60.0333 37.2353C59.2662 37.5357 58.4465 37.6778 57.6231 37.6538C56.7997 37.6779 55.98 37.536 55.2129 37.2358C54.4459 36.9356 53.7473 36.4837 53.159 35.9072C52.5707 35.3305 52.1048 34.6409 51.7893 33.8799C51.4739 33.1188 51.3153 32.3018 51.323 31.478C51.316 30.6546 51.4751 29.8381 51.7909 29.0776C52.1067 28.3171 52.5728 27.6284 53.161 27.0522C53.7493 26.476 54.4477 26.0241 55.2146 25.7241C55.9814 25.4241 56.8009 25.282 57.6241 25.3061C58.447 25.2824 59.2663 25.4249 60.033 25.7251C60.7996 26.0253 61.4979 26.477 62.086 27.0532C62.674 27.6294 63.1399 28.3178 63.4557 29.0781C63.7715 29.8384 63.9308 30.6548 63.924 31.478H63.9231ZM35.3061 28.228C34.5387 28.0166 33.7495 27.895 32.9541 27.8652C31.7481 27.8652 31.093 28.2648 31.093 28.8418C31.093 29.5688 31.9771 29.822 32.4721 29.978L33.302 30.2422C34.0903 30.4088 34.7996 30.8361 35.3153 31.4551C35.8311 32.0741 36.1234 32.8484 36.145 33.6538C36.145 36.6538 33.511 37.6538 31.208 37.6538C30.1181 37.6437 29.0312 37.5349 27.961 37.3281V34.582C28.8852 34.8508 29.8399 34.9998 30.802 35.0259C32.302 35.0259 32.987 34.5881 32.987 33.9131C32.987 33.3131 32.387 32.9601 31.645 32.7261C31.464 32.6651 31.189 32.5801 31.003 32.5181C29.327 31.9881 27.93 31.0028 27.93 29.0298C27.93 26.7998 29.6001 25.3022 32.3731 25.3022C33.362 25.3156 34.3462 25.4427 35.3061 25.6811V28.2261V28.228Z" fill="#041E42"/>
<path d="M4.46899 12.7031C4.46793 12.3078 4.30997 11.9289 4.02985 11.6499C3.74972 11.3709 3.37033 11.2148 2.97498 11.2153C2.57987 11.2151 2.20081 11.3712 1.92078 11.6499C1.64074 11.9286 1.48261 12.307 1.48102 12.7021V15.833C1.49192 16.2225 1.6539 16.5926 1.93274 16.8647C2.21158 17.1369 2.58536 17.2896 2.97498 17.291C3.36505 17.2911 3.73969 17.1387 4.01886 16.8662C4.29803 16.5938 4.45959 16.223 4.46899 15.833V12.7031ZM12.674 8.59522C12.674 8.19898 12.5166 7.81875 12.2364 7.53857C11.9562 7.2584 11.5762 7.10107 11.18 7.10107C10.7838 7.10107 10.4038 7.2584 10.1236 7.53857C9.84342 7.81875 9.68597 8.19898 9.68597 8.59522V15.833C9.68597 16.2292 9.84342 16.6095 10.1236 16.8896C10.4038 17.1698 10.7838 17.3271 11.18 17.3271C11.5762 17.3271 11.9562 17.1698 12.2364 16.8896C12.5166 16.6095 12.674 16.2292 12.674 15.833V8.59424V8.59522ZM20.88 2.97314C20.8789 2.57787 20.7212 2.19905 20.4413 1.91992C20.1614 1.64079 19.7822 1.48437 19.387 1.48438C18.9913 1.48411 18.6118 1.64055 18.3317 1.91992C18.0515 2.19929 17.8938 2.5785 17.893 2.97412V18.8071C17.9027 19.1969 18.0643 19.5676 18.3434 19.8398C18.6226 20.1121 18.9971 20.2643 19.387 20.2642C19.7769 20.2643 20.1514 20.1121 20.4305 19.8398C20.7097 19.5676 20.8713 19.1969 20.881 18.8071L20.88 2.97314ZM29.085 8.59522C29.085 8.19898 28.9276 7.81875 28.6474 7.53857C28.3672 7.2584 27.9872 7.10107 27.591 7.10107C27.1948 7.10107 26.8147 7.2584 26.5345 7.53857C26.2544 7.81875 26.097 8.19898 26.097 8.59522V15.833C26.097 16.2292 26.2544 16.6095 26.5345 16.8896C26.8147 17.1698 27.1948 17.3271 27.591 17.3271C27.9872 17.3271 28.3672 17.1698 28.6474 16.8896C28.9276 16.6095 29.085 16.2292 29.085 15.833V8.59424V8.59522ZM37.285 12.7031C37.2852 12.3089 37.129 11.9309 36.8505 11.6519C36.5721 11.3728 36.1942 11.2159 35.8 11.2153C35.4047 11.2145 35.0253 11.3706 34.7452 11.6494C34.465 11.9283 34.307 12.3069 34.306 12.7021V15.833C34.306 16.2279 34.4629 16.607 34.7421 16.8862C35.0214 17.1655 35.4001 17.3223 35.795 17.3223C36.189 17.3209 36.5665 17.1634 36.8447 16.8843C37.1228 16.6052 37.279 16.2271 37.279 15.833L37.285 12.7031ZM45.494 8.59522C45.4844 8.20666 45.3232 7.83737 45.045 7.56592C44.7669 7.29447 44.3937 7.14223 44.005 7.14209C43.6163 7.14223 43.2431 7.29447 42.9649 7.56592C42.6867 7.83737 42.5256 8.20666 42.516 8.59522V15.833C42.516 16.2279 42.6728 16.607 42.9521 16.8862C43.2313 17.1655 43.6101 17.3223 44.005 17.3223C44.3999 17.3223 44.7786 17.1655 45.0579 16.8862C45.3371 16.607 45.494 16.2279 45.494 15.833V8.59424V8.59522ZM53.705 2.97314C53.7048 2.57841 53.5477 2.19992 53.2685 1.9209C52.9893 1.64187 52.6107 1.48535 52.216 1.48535C51.8213 1.48535 51.4427 1.64187 51.1635 1.9209C50.8842 2.19992 50.7273 2.57841 50.727 2.97314V18.8071C50.7152 19.0759 50.7763 19.3428 50.904 19.5796C51.0316 19.8164 51.221 20.0145 51.452 20.1523C51.683 20.29 51.947 20.3623 52.216 20.3623C52.485 20.3623 52.7489 20.29 52.98 20.1523C53.2111 20.0144 53.4006 19.8161 53.5283 19.5791C53.6559 19.3421 53.717 19.0751 53.705 18.8062V2.97314ZM61.914 8.59522C61.9133 8.39802 61.8737 8.20288 61.7975 8.021C61.7214 7.83911 61.61 7.67398 61.47 7.53516C61.3297 7.3968 61.1635 7.2875 60.981 7.21338C60.7984 7.13926 60.603 7.10162 60.406 7.10303C60.011 7.10329 59.6322 7.26064 59.353 7.54004C59.0738 7.81944 58.917 8.19826 58.917 8.59326V15.832C58.9165 16.028 58.9547 16.2221 59.0293 16.4033C59.1039 16.5845 59.2136 16.7494 59.352 16.8882C59.6314 17.1681 60.0105 17.3256 60.406 17.3262C60.6033 17.3279 60.799 17.2906 60.9818 17.2163C61.1646 17.142 61.3309 17.032 61.471 16.8931C61.6113 16.7543 61.7227 16.5893 61.7987 16.4072C61.8747 16.2251 61.9139 16.0294 61.914 15.832V8.59326V8.59522ZM70.108 12.7031C70.108 12.3077 69.9509 11.9285 69.6713 11.6489C69.3916 11.3693 69.0124 11.2119 68.617 11.2119C68.2216 11.2119 67.8423 11.3693 67.5627 11.6489C67.2831 11.9285 67.126 12.3077 67.126 12.7031V15.833C67.1256 16.0291 67.1638 16.2235 67.2386 16.4048C67.3133 16.5861 67.4231 16.7508 67.5616 16.8896C67.7001 17.0285 67.8646 17.1386 68.0457 17.2139C68.2268 17.2891 68.4209 17.328 68.617 17.3281C68.8129 17.3279 69.0069 17.2891 69.1878 17.2139C69.3687 17.1386 69.533 17.0284 69.6714 16.8896C69.8097 16.7509 69.9195 16.5864 69.9942 16.4053C70.0689 16.2242 70.1073 16.0299 70.107 15.834V12.7041L70.108 12.7031Z" fill="#041E42"/>
<path d="M68.384 35.8711V36.0581H67.852V37.4414H67.633V36.0591H67.0991V35.8711H68.384ZM68.4951 35.8711H68.837L69.3069 37.1592H69.315L69.77 35.8721H70.106V37.4414H69.882V36.1543H69.874L69.398 37.4414H69.191L68.726 36.1543H68.716V37.4414H68.497L68.4951 35.8711Z" fill="#041E42"/>
</svg>
