<svg width="35" height="35" viewBox="0 0 35 35" fill="none" xmlns="http://www.w3.org/2000/svg">
<path d="M34.9417 19.8328L32.285 4.76534C31.9239 2.71817 29.9644 1.34624 27.9176 1.70726L5.13089 5.72525C3.08365 6.08621 1.71178 8.04537 2.07274 10.0925L2.26796 11.1998C0.934684 11.7814 0 13.1117 0 14.6568V29.5804C0 31.6592 1.69122 33.3504 3.76999 33.3504H26.39C28.4687 33.3504 30.16 31.6592 30.16 29.5804V24.5041L31.8836 24.2001C32.8753 24.0253 33.7395 23.4747 34.3172 22.6498C34.8948 21.8249 35.1166 20.8244 34.9417 19.8328ZM32.6327 21.4703C32.3702 21.8453 31.9773 22.0955 31.5265 22.175L30.16 22.416V21.244V16.5795V14.6568C30.16 12.578 28.4687 10.8868 26.39 10.8868H4.30095L4.09791 9.73543C4.0184 9.28467 4.1193 8.82994 4.38183 8.45493C4.64436 8.07999 5.03726 7.82973 5.48801 7.75022L28.2747 3.7323C28.375 3.71461 28.4746 3.70611 28.5731 3.70611C29.3885 3.70611 30.1135 4.29204 30.2599 5.12233L32.9166 20.1898C32.9961 20.6406 32.8953 21.0954 32.6327 21.4703ZM26.39 31.294H3.76999C2.8251 31.294 2.05636 30.5253 2.05636 29.5804V22.2722H28.1036V29.5803C28.1036 30.5253 27.3349 31.294 26.39 31.294ZM3.76999 12.9432H26.39C27.3349 12.9432 28.1036 13.7119 28.1036 14.6568V15.5514H2.05636V14.6568C2.05636 13.7119 2.8251 12.9432 3.76999 12.9432ZM28.1036 17.6077V20.2159H2.05636V17.6077H28.1036Z" fill="#041E42"/>
<path d="M9.89472 27.1649H5.23021C4.66238 27.1649 4.20203 27.6252 4.20203 28.193C4.20203 28.7609 4.66238 29.2212 5.23021 29.2212H9.89472C10.4625 29.2212 10.9229 28.7609 10.9229 28.193C10.9229 27.6252 10.4625 27.1649 9.89472 27.1649Z" fill="#041E42"/>
</svg>
