<svg width="38" height="25" viewBox="0 0 38 25" fill="none" xmlns="http://www.w3.org/2000/svg">
<g clip-path="url(#clip0_77_910)">
<path d="M35 0.100098H3C1.3 0.100098 0 1.4001 0 3.1001V21.1001C0 22.8001 1.4 24.1001 3 24.1001H35C36.7 24.1001 38 22.8001 38 21.1001V3.1001C38 1.4001 36.6 0.100098 35 0.100098Z" fill="#F3F5F6"/>
<path d="M35 1.1001C36.1 1.1001 37 2.0001 37 3.1001V21.1001C37 22.2001 36.1 23.1001 35 23.1001H3C1.9 23.1001 1 22.2001 1 21.1001V3.1001C1 2.0001 1.9 1.1001 3 1.1001H35Z" fill="white"/>
<path d="M3.57 7.26014H2V12.7601H3.57C4.4 12.7601 5 12.5601 5.53 12.1301C6.16 11.6101 6.53 10.8301 6.53 10.0201C6.52 8.39014 5.31 7.26014 3.57 7.26014ZM4.83 11.4001C4.49 11.7001 4.06 11.8401 3.36 11.8401H3.07V8.20014H3.36C4.05 8.20014 4.47 8.32014 4.83 8.64014C5.2 8.97014 5.42 9.48014 5.42 10.0101C5.42 10.5401 5.2 11.0701 4.83 11.4001ZM7.02 7.26014H8.09V12.7601H7.02V7.26014ZM10.71 9.37014C10.07 9.13014 9.88 8.97014 9.88 8.68014C9.88 8.33014 10.22 8.07014 10.68 8.07014C11 8.07014 11.27 8.20014 11.54 8.52014L12.1 7.79014C11.64 7.39014 11.09 7.18014 10.48 7.18014C9.51 7.18014 8.76 7.86014 8.76 8.76014C8.76 9.52014 9.11 9.91014 10.11 10.2701C10.53 10.4201 10.74 10.5201 10.85 10.5801C11.06 10.7201 11.17 10.9201 11.17 11.1501C11.17 11.6001 10.82 11.9301 10.34 11.9301C9.83 11.9301 9.42 11.6701 9.17 11.2001L8.48 11.8701C8.97 12.6001 9.57 12.9201 10.38 12.9201C11.49 12.9201 12.28 12.1801 12.28 11.1101C12.3 10.2201 11.93 9.82014 10.71 9.37014ZM12.63 10.0201C12.63 11.6401 13.9 12.8901 15.53 12.8901C15.99 12.8901 16.39 12.8001 16.87 12.5701V11.3101C16.44 11.7401 16.06 11.9101 15.58 11.9101C14.5 11.9101 13.73 11.1301 13.73 10.0101C13.73 8.95014 14.52 8.12014 15.53 8.12014C16.04 8.12014 16.43 8.30014 16.87 8.74014V7.48014C16.4 7.24014 16.01 7.14014 15.55 7.14014C13.94 7.14014 12.63 8.42014 12.63 10.0201ZM25.39 10.9601L23.92 7.26014H22.75L25.08 12.9001H25.66L28.03 7.26014H26.87L25.39 10.9601ZM28.52 12.7601H31.56V11.8301H29.59V10.3501H31.49V9.42014H29.59V8.20014H31.56V7.26014H28.52V12.7601ZM35.81 8.89014C35.81 7.86014 35.1 7.27014 33.86 7.27014H32.27V12.7701H33.34V10.5601H33.48L34.96 12.7701H36.28L34.55 10.4501C35.36 10.2801 35.81 9.73014 35.81 8.89014ZM33.65 9.80014H33.34V8.13014H33.67C34.34 8.13014 34.7 8.41014 34.7 8.95014C34.7 9.50014 34.34 9.80014 33.65 9.80014Z" fill="#231F20"/>
<path d="M20.16 12.9601C20.9374 12.9601 21.6829 12.6513 22.2325 12.1017C22.7822 11.552 23.091 10.8065 23.091 10.0291C23.091 9.25179 22.7822 8.50628 22.2325 7.95661C21.6829 7.40695 20.9374 7.09814 20.16 7.09814C19.3827 7.09814 18.6371 7.40695 18.0875 7.95661C17.5378 8.50628 17.229 9.25179 17.229 10.0291C17.229 10.8065 17.5378 11.552 18.0875 12.1017C18.6371 12.6513 19.3827 12.9601 20.16 12.9601Z" fill="url(#paint0_linear_77_910)"/>
<path opacity="0.65" d="M20.16 12.9601C20.9374 12.9601 21.6829 12.6513 22.2325 12.1017C22.7822 11.552 23.091 10.8065 23.091 10.0291C23.091 9.25179 22.7822 8.50628 22.2325 7.95661C21.6829 7.40695 20.9374 7.09814 20.16 7.09814C19.3827 7.09814 18.6371 7.40695 18.0875 7.95661C17.5378 8.50628 17.229 9.25179 17.229 10.0291C17.229 10.8065 17.5378 11.552 18.0875 12.1017C18.6371 12.6513 19.3827 12.9601 20.16 12.9601Z" fill="url(#paint1_linear_77_910)"/>
<path d="M36.57 7.60605C36.57 7.50605 36.5 7.45605 36.39 7.45605H36.23V7.93605H36.35V7.74605L36.49 7.93605H36.63L36.47 7.73605C36.53 7.72605 36.57 7.67605 36.57 7.60605ZM36.37 7.67605H36.35V7.54605H36.37C36.43 7.54605 36.46 7.56605 36.46 7.60605C36.46 7.65605 36.43 7.67605 36.37 7.67605Z" fill="#231F20"/>
<path d="M36.41 7.27588C36.18 7.27588 35.99 7.46588 35.99 7.69588C35.99 7.92588 36.18 8.11588 36.41 8.11588C36.64 8.11588 36.83 7.92588 36.83 7.69588C36.83 7.46588 36.64 7.27588 36.41 7.27588ZM36.41 8.04588C36.23 8.04588 36.07 7.89588 36.07 7.69588C36.07 7.50588 36.22 7.34588 36.41 7.34588C36.59 7.34588 36.74 7.50588 36.74 7.69588C36.74 7.88588 36.59 8.04588 36.41 8.04588Z" fill="#231F20"/>
<path d="M37 13.084C37 13.084 27.09 19.973 8.97595 23.1H34.999C35.5266 23.1 36.0329 22.8915 36.4075 22.5199C36.7822 22.1482 36.9947 21.6436 36.999 21.116L37.023 18.096L37 13.085V13.084Z" fill="#F48120"/>
</g>
<defs>
<linearGradient id="paint0_linear_77_910" x1="21.657" y1="12.3751" x2="19.632" y2="9.20414" gradientUnits="userSpaceOnUse">
<stop stop-color="#F89F20"/>
<stop offset="0.25" stop-color="#F79A20"/>
<stop offset="0.533" stop-color="#F68D20"/>
<stop offset="0.62" stop-color="#F58720"/>
<stop offset="0.723" stop-color="#F48120"/>
<stop offset="1" stop-color="#F37521"/>
</linearGradient>
<linearGradient id="paint1_linear_77_910" x1="21.338" y1="12.3321" x2="18.378" y2="6.54614" gradientUnits="userSpaceOnUse">
<stop stop-color="#F58720"/>
<stop offset="0.359" stop-color="#E16F27"/>
<stop offset="0.703" stop-color="#D4602C"/>
<stop offset="0.982" stop-color="#D05B2E"/>
</linearGradient>
<clipPath id="clip0_77_910">
<rect width="38" height="24" fill="white" transform="translate(0 0.100098)"/>
</clipPath>
</defs>
</svg>
