<svg width="122" height="24" viewBox="0 0 122 24" fill="none" xmlns="http://www.w3.org/2000/svg">
<g clip-path="url(#clip0_60_1214)">
<path fill-rule="evenodd" clip-rule="evenodd" d="M3.70101 2.23493C4.60927 1.44576 5.66477 0.844175 6.80664 0.464868C7.9485 0.0855613 9.15416 -0.0639673 10.3541 0.0249028C11.554 0.113773 12.7245 0.439284 13.798 0.982669C14.8716 1.52605 15.8269 2.27656 16.609 3.19093C18.2908 4.89166 19.2731 7.16163 19.3616 9.55185C19.4502 11.9421 18.6384 14.2785 17.087 16.0989L9.91601 23.2699C8.48201 22.3139 6.09201 20.4019 7.04801 18.4889C8.96001 16.0989 11.348 14.1889 13.263 11.7959C14.697 9.88393 13.741 6.05893 10.873 5.58093C10.2294 5.35597 9.53887 5.30002 8.86747 5.41843C8.19607 5.53684 7.56632 5.82565 7.03852 6.2572C6.51073 6.68875 6.10257 7.24858 5.85315 7.88308C5.60372 8.51758 5.52138 9.20549 5.61401 9.88093C5.61401 12.2709 7.52601 13.7049 8.96001 15.1399C7.52601 16.5739 5.61401 17.5299 5.61401 19.4399C4.18001 17.5279 1.79001 16.0939 0.83301 13.7029C-0.0410163 11.7461 -0.233446 9.55272 0.286508 7.47363C0.806463 5.39454 2.00875 3.54993 3.70101 2.23493Z" fill="#041E42"/>
<path fill-rule="evenodd" clip-rule="evenodd" d="M34.297 2.23512C34.775 0.801117 36.209 1.27912 37.165 1.27912V18.9621H34.297V17.5321C33.146 18.4601 31.712 18.9662 30.2335 18.9662C28.755 18.9662 27.321 18.4601 26.17 17.5321C24.8461 16.3233 24.0531 14.6405 23.9636 12.85C23.8741 11.0594 24.4953 9.30597 25.692 7.97112C26.7682 6.79981 28.232 6.0577 29.8129 5.88196C31.3938 5.70622 32.9849 6.10874 34.292 7.01512L34.297 2.23512ZM29.997 8.45012C27.607 8.92812 25.697 12.2741 27.607 14.6651C27.9641 15.1861 28.452 15.6039 29.0217 15.8766C29.5913 16.1494 30.2227 16.2675 30.8524 16.2191C31.4822 16.1706 32.0881 15.9574 32.6093 15.6007C33.1306 15.2441 33.5488 14.7565 33.822 14.1871C35.253 11.7961 32.862 8.44912 29.994 8.44912L29.997 8.45012Z" fill="#041E42"/>
<path fill-rule="evenodd" clip-rule="evenodd" d="M39.5551 6.05883H42.423V7.01483C43.379 5.58083 45.2911 5.58083 47.2041 6.05883C46.7261 7.01483 46.2481 7.49283 46.2481 8.44883C44.3361 7.97083 42.4241 8.92683 42.4241 10.3608V17.5318C41.9451 18.9708 40.5111 18.9708 39.5551 18.9708V6.05883Z" fill="#041E42"/>
<path fill-rule="evenodd" clip-rule="evenodd" d="M51.506 6.06009C56.287 4.14809 61.067 8.92809 60.106 13.7091C59.145 18.4901 52.457 20.8801 49.106 17.5331C45.282 14.1871 46.716 7.01609 51.496 6.06009H51.506ZM52.94 8.45009C52.1373 8.66424 51.4052 9.08635 50.8178 9.67383C50.2303 10.2613 49.8082 10.9933 49.594 11.7961C49.4959 12.3415 49.523 12.9021 49.6732 13.4355C49.8234 13.969 50.0928 14.4613 50.461 14.8754C50.8293 15.2895 51.2868 15.6146 51.7991 15.826C52.3113 16.0375 52.8649 16.1298 53.418 16.0961C55.33 16.0961 57.242 14.6621 57.242 12.7501C57.242 10.3621 54.853 7.97209 52.942 8.45009H52.94Z" fill="#041E42"/>
<path fill-rule="evenodd" clip-rule="evenodd" d="M62.024 6.05879H64.892V7.01479C66.1992 6.10841 67.7903 5.70589 69.3712 5.88163C70.9521 6.05737 72.4159 6.79948 73.4921 7.97078C74.083 8.58506 74.5418 9.31401 74.8399 10.1126C75.138 10.9112 75.2692 11.7624 75.2253 12.6136C75.1814 13.4649 74.9635 14.2982 74.5849 15.0619C74.2062 15.8256 73.675 16.5035 73.024 17.0538C71.112 19.4438 67.287 19.4438 64.897 18.0098V22.3098C64.419 23.7438 62.9851 23.7438 62.0291 23.7438V6.05879H62.024ZM68.239 8.44879C65.371 8.92679 63.939 12.2728 65.371 14.1858C66.805 16.5758 70.63 16.5758 71.586 14.1858C73.497 11.7948 71.107 8.44879 68.239 8.44879Z" fill="#041E42"/>
<path fill-rule="evenodd" clip-rule="evenodd" d="M80.19 6.53782C81.3999 5.85935 82.7953 5.58612 84.1717 5.75815C85.5482 5.93018 86.8333 6.53844 87.839 7.49382C87.361 7.97182 86.883 8.92782 85.927 9.40582C85.4814 9.04481 84.958 8.79233 84.3981 8.66831C83.8381 8.54429 83.2571 8.55212 82.7007 8.69119C82.1443 8.83026 81.6279 9.09676 81.1922 9.46965C80.7564 9.84254 80.4134 10.3116 80.19 10.8398C79.9823 11.4059 79.9078 12.0122 79.9725 12.6118C80.0371 13.2113 80.2391 13.7878 80.5628 14.2966C80.8865 14.8053 81.3231 15.2326 81.8388 15.5452C82.3545 15.8577 82.9352 16.0472 83.536 16.0988C84.492 16.0988 85.448 15.6208 86.404 15.6208C87.2579 15.9968 87.94 16.6789 88.316 17.5328C84.97 20.4008 79.233 19.4448 77.799 15.1428C75.887 12.2738 77.321 8.44782 80.19 6.53782Z" fill="#041E42"/>
<path fill-rule="evenodd" clip-rule="evenodd" d="M88.317 14.6641C86.885 10.3621 90.229 5.58105 94.532 5.58105C96.2531 5.65618 97.8983 6.3111 99.2002 7.4394C100.502 8.5677 101.384 10.1031 101.703 11.7961V18.9671C100.269 18.9671 99.313 18.9671 98.357 18.0111C95.011 20.4011 89.757 18.4891 88.318 14.6651L88.317 14.6641ZM94.532 8.44905C93.8737 8.57292 93.2545 8.85246 92.7262 9.26436C92.1979 9.67626 91.7757 10.2086 91.495 10.8168C91.2143 11.4251 91.0832 12.0917 91.1126 12.761C91.142 13.4302 91.3311 14.0827 91.664 14.6641C93.576 17.0541 97.401 16.5761 98.357 14.1861C98.6019 13.5557 98.6913 12.8756 98.6179 12.2034C98.5445 11.5311 98.3103 10.8864 97.9352 10.3237C97.56 9.76105 97.0549 9.29696 96.4626 8.97067C95.8703 8.64437 95.2081 8.46546 94.532 8.44905Z" fill="#041E42"/>
<path fill-rule="evenodd" clip-rule="evenodd" d="M103.615 6.06009H106.483V7.01609C107.917 5.10409 111.264 5.58209 113.176 7.49409C115.566 4.62609 120.347 5.58209 121.303 8.92809C121.781 11.7961 121.303 15.1431 121.303 18.0111C121.303 18.9671 119.869 18.9671 118.435 18.9671C118.435 16.0991 118.913 13.2301 118.435 10.3671C118.341 9.86519 118.075 9.41183 117.683 9.08556C117.29 8.75929 116.796 8.58068 116.285 8.58068C115.774 8.58068 115.28 8.75929 114.887 9.08556C114.495 9.41183 114.229 9.86519 114.135 10.3671V18.9671H111.267C111.346 15.9316 111.186 12.8945 110.789 9.88409C110.311 7.97209 106.965 8.45009 106.965 10.3621C106.568 13.2106 106.408 16.0871 106.487 18.9621H103.615V6.06009Z" fill="#041E42"/>
</g>
<defs>
<clipPath id="clip0_60_1214">
<rect width="121.516" height="23.743" fill="white"/>
</clipPath>
</defs>
</svg>
