<svg width="30" height="30" viewBox="0 0 30 30" fill="none" xmlns="http://www.w3.org/2000/svg">
<g clip-path="url(#clip0_77_750)">
<path d="M30 7.47142V6.99803C30 5.21566 28.5499 3.76562 26.7676 3.76562H3.23241C1.45003 3.76562 0 5.21566 0 6.99803V7.47142V7.47487V23.002C0 24.7843 1.45003 26.2343 3.23241 26.2343H26.7678C28.55 26.2343 30 24.7843 30 23.002V7.47487C30 7.47376 30 7.47259 30 7.47142ZM3.23241 5.52345H26.7676C27.5806 5.52345 28.2422 6.18492 28.2422 6.99803V6.99844L16.4708 14.846C15.6873 15.3683 14.3128 15.3683 13.5294 14.846L1.75783 6.99839V6.99797C1.75783 6.18492 2.4193 5.52345 3.23241 5.52345ZM26.7678 24.4765H3.23241C2.4193 24.4765 1.75783 23.815 1.75783 23.002V9.111L12.5543 16.3086C13.2401 16.7658 14.1199 16.9943 15.0001 16.9943C15.88 16.9943 16.7602 16.7657 17.4459 16.3086L28.2422 9.111V23.002C28.2422 23.815 27.5807 24.4765 26.7678 24.4765Z" fill="#041E42"/>
</g>
<defs>
<clipPath id="clip0_77_750">
<rect width="30" height="30" fill="white"/>
</clipPath>
</defs>
</svg>
