<svg width="35" height="35" viewBox="0 0 35 35" fill="none" xmlns="http://www.w3.org/2000/svg">
<g clip-path="url(#clip0_44_148)">
<path fill-rule="evenodd" clip-rule="evenodd" d="M13.8663 22.7012H24.54C25.7485 19.143 30.7914 19.1772 31.9882 22.7012H32.8801V17.5724C32.8801 16.9334 32.3564 16.4097 31.7177 16.4097C29.0963 16.4097 26.4748 16.4097 23.8534 16.4097C23.2868 16.4097 22.8275 15.9504 22.8275 15.3841V9.22932H5.25272V10.4601H7.13875C8.48911 10.4601 8.48911 12.5116 7.13875 12.5116H5.25272V14.4949H10.1765C11.5271 14.4949 11.5271 16.5464 10.1765 16.5464H5.25272V22.7009H6.4183C7.62661 19.1428 12.6697 19.1775 13.8663 22.7012ZM3.20114 12.5116H1.9704C0.619769 12.5116 0.619769 10.4601 1.9704 10.4601H3.20114V8.20339C3.20114 7.63702 3.66043 7.17773 4.22706 7.17773C5.79693 7.17773 23.0499 7.18441 23.0499 7.17773C25.858 7.17773 28.304 8.56789 29.7433 10.9832L31.7545 14.3584C33.5097 14.3782 34.9317 15.814 34.9317 17.5721V23.7268C34.9317 24.2932 34.4724 24.7525 33.906 24.7525H32.1177C31.75 26.563 30.1502 27.8981 28.2642 27.8981C26.3782 27.8981 24.7784 26.563 24.4107 24.7525H13.9958C13.6281 26.563 12.0283 27.8981 10.1423 27.8981C8.25626 27.8981 6.65649 26.563 6.28879 24.7525H4.22706C3.66043 24.7525 3.20114 24.2932 3.20114 23.7268V20.6493H0.944476C-0.40589 20.6493 -0.40589 18.598 0.944476 18.598H3.20114V16.5464H0.944476C-0.40589 16.5464 -0.40589 14.4949 0.944476 14.4949H3.20114V12.5116ZM29.594 22.6363C30.3283 23.3706 30.3283 24.5616 29.594 25.2959C28.4127 26.4772 26.3835 25.6369 26.3835 23.9661C26.3835 22.2953 28.4127 21.455 29.594 22.6363ZM29.3737 14.3581H24.8791V9.50729C26.1878 9.9268 27.258 10.8075 27.9881 12.0329L29.3737 14.3581ZM11.4721 22.6363C12.2064 23.3706 12.2064 24.5616 11.4721 25.2959C10.2908 26.4772 8.2616 25.6369 8.2616 23.9661C8.26187 22.2953 10.2908 21.455 11.4721 22.6363Z" fill="#041E42"/>
</g>
<defs>
<clipPath id="clip0_44_148">
<rect width="35" height="35" fill="white"/>
</clipPath>
</defs>
</svg>
