<svg width="14" height="14" viewBox="0 0 14 14" fill="none" xmlns="http://www.w3.org/2000/svg">
<path d="M13.5625 11.6243H13.2818V1.94141C13.2818 1.6998 13.0859 1.50391 12.8443 1.50391H10.1757C9.93411 1.50391 9.73822 1.6998 9.73822 1.94141V11.6243H8.7719V3.983C8.7719 3.74139 8.576 3.5455 8.3344 3.5455H5.66582C5.42421 3.5455 5.22832 3.74139 5.22832 3.983V11.6243H4.26199V6.0247C4.26199 5.7831 4.0661 5.5872 3.82449 5.5872H1.15591C0.914307 5.5872 0.718414 5.7831 0.718414 6.0247V11.6243H0.4375C0.195892 11.6243 0 11.8202 0 12.0618C0 12.3034 0.195892 12.4993 0.4375 12.4993H13.5625C13.8041 12.4993 14 12.3034 14 12.0618C14 11.8202 13.8041 11.6243 13.5625 11.6243ZM10.6131 2.37891H12.4067V11.6243H10.6131V2.37891ZM6.10332 11.6243V4.4205H7.8969V11.6243H6.10332ZM1.59341 6.4622H3.38699V11.6243H1.59341V6.4622Z" fill="#041E42"/>
</svg>
