<svg width="35" height="35" viewBox="0 0 35 35" fill="none" xmlns="http://www.w3.org/2000/svg">
<path d="M17.5 0C9.01899 0 2.11914 6.89985 2.11914 15.3809C2.11914 16.3207 2.11914 23.5914 2.11914 23.7207C2.11914 25.4169 3.49911 26.7969 5.19531 26.7969H6.39707C6.82035 27.9903 7.96011 28.8477 9.29688 28.8477C10.9931 28.8477 12.373 27.4677 12.373 25.7715V17.4316C12.373 15.7354 10.9931 14.3555 9.29688 14.3555C7.96011 14.3555 6.82035 15.2128 6.39707 16.4062H5.19531C4.83581 16.4062 4.49087 16.4688 4.16992 16.5826V15.3809C4.16992 8.03065 10.1498 2.05078 17.5 2.05078C24.8502 2.05078 30.8301 8.03065 30.8301 15.3809V16.5826C30.5091 16.4688 30.1642 16.4062 29.8047 16.4062H28.6029C28.1796 15.2128 27.0399 14.3555 25.7031 14.3555C24.0069 14.3555 22.627 15.7354 22.627 17.4316V25.7715C22.627 27.4677 24.0069 28.8477 25.7031 28.8477C26.0135 28.8477 26.3132 28.801 26.596 28.7151C26.2124 29.9772 25.0381 30.8984 23.6523 30.8984H20.3998C19.9765 29.705 18.8368 28.8477 17.5 28.8477C15.8038 28.8477 14.4238 30.2276 14.4238 31.9238C14.4238 33.62 15.8038 35 17.5 35C18.8368 35 19.9765 34.1426 20.3998 32.9492H23.6523C26.4793 32.9492 28.7793 30.6493 28.7793 27.8223V26.7969H29.8047C31.5009 26.7969 32.8809 25.4169 32.8809 23.7207C32.8809 23.5933 32.8809 16.32 32.8809 15.3809C32.8809 6.89985 25.981 0 17.5 0ZM8.27148 17.4316C8.27148 16.8662 8.73147 16.4062 9.29688 16.4062C9.86228 16.4062 10.3223 16.8662 10.3223 17.4316V25.7715C10.3223 26.3369 9.86228 26.7969 9.29688 26.7969C8.73147 26.7969 8.27148 26.3369 8.27148 25.7715V17.4316ZM5.19531 18.457H6.2207V24.7461H5.19531C4.62991 24.7461 4.16992 24.2861 4.16992 23.7207V19.4824C4.16992 18.917 4.62991 18.457 5.19531 18.457ZM17.5 32.9492C16.9346 32.9492 16.4746 32.4892 16.4746 31.9238C16.4746 31.3584 16.9346 30.8984 17.5 30.8984C18.0654 30.8984 18.5254 31.3584 18.5254 31.9238C18.5254 32.4892 18.0654 32.9492 17.5 32.9492ZM26.7285 25.7715C26.7285 26.3369 26.2685 26.7969 25.7031 26.7969C25.1377 26.7969 24.6777 26.3369 24.6777 25.7715V17.4316C24.6777 16.8662 25.1377 16.4062 25.7031 16.4062C26.2685 16.4062 26.7285 16.8662 26.7285 17.4316V25.7715ZM30.8301 23.7207C30.8301 24.2861 30.3701 24.7461 29.8047 24.7461H28.7793V18.457H29.8047C30.3701 18.457 30.8301 18.917 30.8301 19.4824V23.7207Z" fill="#041E42"/>
</svg>
