<svg width="22" height="22" viewBox="0 0 22 22" fill="none" xmlns="http://www.w3.org/2000/svg">
<path d="M14.6237 3.55396C17.2178 3.55396 19.3201 5.68866 19.3201 8.67725C19.3201 14.6544 12.916 18.07 10.7813 19.3508C8.64654 18.07 2.24243 14.6544 2.24243 8.67725C2.24243 5.68866 4.37714 3.55396 6.93878 3.55396C8.52699 3.55396 9.92736 4.40784 10.7813 5.26172C11.6351 4.40784 13.0355 3.55396 14.6237 3.55396ZM11.5788 16.8779C12.331 16.4032 13.0099 15.931 13.6452 15.4255C16.1906 13.4018 17.6123 11.1902 17.6123 8.67725C17.6123 6.66209 16.2999 5.26172 14.6237 5.26172C13.7049 5.26172 12.711 5.74843 11.9886 6.46911L10.7813 7.6765L9.57385 6.46911C8.85147 5.74843 7.85756 5.26172 6.93878 5.26172C5.28225 5.26172 3.9502 6.67575 3.9502 8.67725C3.9502 11.1911 5.37276 13.4018 7.91648 15.4255C8.55261 15.931 9.23145 16.4032 9.98372 16.8771C10.239 17.0385 10.4918 17.193 10.7813 17.3655C11.0707 17.193 11.3235 17.0385 11.5788 16.8779Z" fill="white"/>
</svg>
