<svg width="113" height="36" viewBox="0 0 113 36" fill="none" xmlns="http://www.w3.org/2000/svg">
<path d="M5.664 22.688H13.152V26H1.104V22.88L8.472 12.32H1.2V9.032H13.104V12.152L5.664 22.688ZM28.386 18.944C28.386 19.28 28.346 19.648 28.266 20.048H18.978C19.026 21.056 19.282 21.784 19.746 22.232C20.21 22.664 20.802 22.88 21.522 22.88C22.13 22.88 22.634 22.728 23.034 22.424C23.434 22.12 23.698 21.728 23.826 21.248H28.17C27.994 22.192 27.61 23.04 27.018 23.792C26.426 24.528 25.674 25.112 24.762 25.544C23.85 25.96 22.834 26.168 21.714 26.168C20.402 26.168 19.234 25.896 18.21 25.352C17.202 24.792 16.41 23.992 15.834 22.952C15.258 21.912 14.97 20.696 14.97 19.304C14.97 17.896 15.25 16.68 15.81 15.656C16.386 14.616 17.186 13.824 18.21 13.28C19.234 12.72 20.402 12.44 21.714 12.44C23.042 12.44 24.21 12.712 25.218 13.256C26.226 13.8 27.002 14.568 27.546 15.56C28.106 16.536 28.386 17.664 28.386 18.944ZM24.234 18.32C24.25 17.44 24.01 16.784 23.514 16.352C23.034 15.904 22.434 15.68 21.714 15.68C20.962 15.68 20.338 15.904 19.842 16.352C19.346 16.8 19.066 17.456 19.002 18.32H24.234ZM36.7894 12.44C38.1174 12.44 39.3014 12.72 40.3414 13.28C41.3974 13.824 42.2214 14.616 42.8134 15.656C43.4214 16.696 43.7254 17.912 43.7254 19.304C43.7254 20.696 43.4214 21.912 42.8134 22.952C42.2214 23.992 41.3974 24.792 40.3414 25.352C39.3014 25.896 38.1174 26.168 36.7894 26.168C35.4614 26.168 34.2694 25.896 33.2134 25.352C32.1574 24.792 31.3254 23.992 30.7174 22.952C30.1254 21.912 29.8294 20.696 29.8294 19.304C29.8294 17.912 30.1254 16.696 30.7174 15.656C31.3254 14.616 32.1574 13.824 33.2134 13.28C34.2694 12.72 35.4614 12.44 36.7894 12.44ZM36.7894 15.992C36.0054 15.992 35.3414 16.28 34.7974 16.856C34.2694 17.416 34.0054 18.232 34.0054 19.304C34.0054 20.376 34.2694 21.192 34.7974 21.752C35.3414 22.312 36.0054 22.592 36.7894 22.592C37.5734 22.592 38.2294 22.312 38.7574 21.752C39.2854 21.192 39.5494 20.376 39.5494 19.304C39.5494 18.232 39.2854 17.416 38.7574 16.856C38.2294 16.28 37.5734 15.992 36.7894 15.992ZM63.2055 12.464C64.8535 12.464 66.1495 12.976 67.0935 14C68.0375 15.008 68.5095 16.416 68.5095 18.224V26H64.4295V18.704C64.4295 17.856 64.1975 17.2 63.7335 16.736C63.2855 16.256 62.6695 16.016 61.8855 16.016C61.0695 16.016 60.4215 16.272 59.9415 16.784C59.4775 17.28 59.2455 17.984 59.2455 18.896V26H55.1415V18.704C55.1415 17.856 54.9175 17.2 54.4695 16.736C54.0215 16.256 53.4055 16.016 52.6215 16.016C51.8055 16.016 51.1575 16.264 50.6775 16.76C50.1975 17.256 49.9575 17.968 49.9575 18.896V26H45.8535V12.608H49.9575V14.888C50.3095 14.136 50.8455 13.544 51.5655 13.112C52.3015 12.68 53.1575 12.464 54.1335 12.464C55.1575 12.464 56.0615 12.704 56.8455 13.184C57.6295 13.648 58.2215 14.32 58.6215 15.2C59.0855 14.368 59.7175 13.704 60.5175 13.208C61.3335 12.712 62.2295 12.464 63.2055 12.464ZM76.3243 12.44C77.3483 12.44 78.2283 12.672 78.9643 13.136C79.7003 13.6 80.2443 14.232 80.5963 15.032V12.608H84.6763V26H80.5963V23.576C80.2443 24.376 79.7003 25.008 78.9643 25.472C78.2283 25.936 77.3483 26.168 76.3243 26.168C75.2203 26.168 74.2283 25.896 73.3483 25.352C72.4843 24.792 71.7963 23.992 71.2843 22.952C70.7883 21.912 70.5403 20.696 70.5403 19.304C70.5403 17.896 70.7883 16.68 71.2843 15.656C71.7963 14.616 72.4843 13.824 73.3483 13.28C74.2283 12.72 75.2203 12.44 76.3243 12.44ZM77.6443 16.04C76.7643 16.04 76.0523 16.328 75.5083 16.904C74.9803 17.48 74.7163 18.28 74.7163 19.304C74.7163 20.328 74.9803 21.128 75.5083 21.704C76.0523 22.28 76.7643 22.568 77.6443 22.568C78.5083 22.568 79.2123 22.272 79.7563 21.68C80.3163 21.088 80.5963 20.296 80.5963 19.304C80.5963 18.296 80.3163 17.504 79.7563 16.928C79.2123 16.336 78.5083 16.04 77.6443 16.04ZM91.6059 15.128C92.1179 14.312 92.7739 13.664 93.5739 13.184C94.3899 12.704 95.2699 12.464 96.2139 12.464V16.856H95.0379C93.9499 16.856 93.1019 17.088 92.4939 17.552C91.9019 18.016 91.6059 18.8 91.6059 19.904V26H87.5019V12.608H91.6059V15.128ZM105.516 22.472V26H103.668C102.1 26 100.876 25.616 99.9956 24.848C99.1316 24.064 98.6996 22.776 98.6996 20.984V16.064H96.8996V12.608H98.6996V9.32H102.804V12.608H105.492V16.064H102.804V21.056C102.804 21.584 102.908 21.952 103.116 22.16C103.34 22.368 103.708 22.472 104.22 22.472H105.516Z" fill="white"/>
<path d="M111.35 21.896V26H107.102V21.896H111.35Z" fill="#F5C34B"/>
</svg>
