<svg width="38" height="25" viewBox="0 0 38 25" fill="none" xmlns="http://www.w3.org/2000/svg">
<g clip-path="url(#clip0_77_862)">
<path d="M35 0.100098H3C1.3 0.100098 0 1.4001 0 3.1001V21.1001C0 22.8001 1.4 24.1001 3 24.1001H35C36.7 24.1001 38 22.8001 38 21.1001V3.1001C38 1.4001 36.6 0.100098 35 0.100098Z" fill="#F3F5F6"/>
<path d="M35 1.1001C36.1 1.1001 37 2.0001 37 3.1001V21.1001C37 22.2001 36.1 23.1001 35 23.1001H3C1.9 23.1001 1 22.2001 1 21.1001V3.1001C1 2.0001 1.9 1.1001 3 1.1001H35Z" fill="white"/>
<path d="M15 19.1001C18.866 19.1001 22 15.9661 22 12.1001C22 8.2341 18.866 5.1001 15 5.1001C11.134 5.1001 8 8.2341 8 12.1001C8 15.9661 11.134 19.1001 15 19.1001Z" fill="#EB001B"/>
<path d="M23 19.1001C26.866 19.1001 30 15.9661 30 12.1001C30 8.2341 26.866 5.1001 23 5.1001C19.134 5.1001 16 8.2341 16 12.1001C16 15.9661 19.134 19.1001 23 19.1001Z" fill="#F79E1B"/>
<path d="M22 12.0999C22 9.6999 20.8 7.5999 19 6.3999C17.2 7.6999 16 9.7999 16 12.0999C16 14.3999 17.2 16.5999 19 17.7999C20.8 16.5999 22 14.4999 22 12.0999Z" fill="#FF5F00"/>
</g>
<defs>
<clipPath id="clip0_77_862">
<rect width="38" height="24" fill="white" transform="translate(0 0.100098)"/>
</clipPath>
</defs>
</svg>
