<svg width="38" height="25" viewBox="0 0 38 25" fill="none" xmlns="http://www.w3.org/2000/svg">
<g clip-path="url(#clip0_77_919)">
<path d="M35 0.100098H3C1.3 0.100098 0 1.4001 0 3.1001V21.1001C0 22.8001 1.4 24.1001 3 24.1001H35C36.7 24.1001 38 22.8001 38 21.1001V3.1001C38 1.4001 36.6 0.100098 35 0.100098Z" fill="#F3F5F6"/>
<path d="M35 1.1001C36.1 1.1001 37 2.0001 37 3.1001V21.1001C37 22.2001 36.1 23.1001 35 23.1001H3C1.9 23.1001 1 22.2001 1 21.1001V3.1001C1 2.0001 1.9 1.1001 3 1.1001H35Z" fill="white"/>
<path d="M23.9 8.4001C24.1 7.4001 23.9 6.7001 23.3 6.1001C22.7 5.4001 21.6 5.1001 20.2 5.1001H16.1C15.8 5.1001 15.6 5.3001 15.5 5.6001L14 15.7001C14 15.9001 14.1 16.1001 14.3 16.1001H17L17.4 12.7001L19.2 10.5001L23.9 8.4001Z" fill="#003087"/>
<path d="M23.9 8.3999L23.7 8.5999C23.2 11.3999 21.5 12.3999 19.1 12.3999H18C17.7 12.3999 17.5 12.5999 17.4 12.8999L16.8 16.7999L16.6 17.7999C16.6 17.9999 16.7 18.1999 16.9 18.1999H19C19.3 18.1999 19.5 17.9999 19.5 17.7999V17.6999L19.9 15.2999V15.1999C19.9 14.9999 20.2 14.7999 20.4 14.7999H20.7C22.8 14.7999 24.4 13.9999 24.8 11.5999C25 10.5999 24.9 9.7999 24.4 9.1999C24.3 8.6999 24.1 8.4999 23.9 8.3999Z" fill="#3086C8"/>
<path d="M23.3 8.1999C23.2 8.0999 23.1 8.0999 23 8.0999C22.9 8.0999 22.8 8.0999 22.7 7.9999C22.4 7.8999 22 7.8999 21.6 7.8999H18.6C18.5 7.8999 18.4 7.8999 18.4 7.9999C18.2 8.0999 18.1 8.1999 18.1 8.3999L17.4 12.7999V12.8999C17.4 12.5999 17.7 12.3999 18 12.3999H19.3C21.8 12.3999 23.4 11.3999 23.9 8.5999V8.3999C23.8 8.2999 23.6 8.1999 23.4 8.1999H23.3Z" fill="#012169"/>
</g>
<defs>
<clipPath id="clip0_77_919">
<rect width="38" height="24" fill="white" transform="translate(0 0.100098)"/>
</clipPath>
</defs>
</svg>
