<svg width="30" height="30" viewBox="0 0 30 30" fill="none" xmlns="http://www.w3.org/2000/svg">
<g clip-path="url(#clip0_77_757)">
<path d="M25.8378 22.7609L21.2943 19.7752C20.2128 19.0645 18.8088 19.1263 17.8004 19.9285C16.9174 20.6314 15.6496 20.5595 14.8517 19.7614L10.2383 15.1483C9.44047 14.3502 9.3686 13.0824 10.0713 12.1994C10.8737 11.1909 10.9353 9.78698 10.2246 8.70552L7.23885 4.16199C6.71677 3.36754 5.90699 2.89215 4.9585 2.82326C4.01002 2.75505 3.14049 3.10821 2.50924 3.81912C-0.988076 7.75726 -0.808861 13.7606 2.91711 17.4863L12.5134 27.0829C14.4521 29.0215 17.0071 29.9998 19.5673 29.9998C21.9273 29.9998 24.2919 29.1682 26.1809 27.4908C26.8918 26.8593 27.2454 25.9895 27.1765 25.0413C27.1079 24.093 26.6325 23.2832 25.8378 22.7609ZM25.0138 26.1765C21.7703 29.057 16.8253 28.9091 13.7563 25.8401L4.15971 16.2437C1.09086 13.1747 0.943 8.22967 3.82325 4.98596C4.06724 4.7113 4.37119 4.57237 4.72779 4.57237C4.76189 4.57237 4.79645 4.57374 4.83147 4.57626C5.23316 4.60533 5.54879 4.79072 5.77012 5.12718L8.75588 9.67071C9.05297 10.123 9.02962 10.686 8.69591 11.1051C7.43638 12.6881 7.56524 14.9606 8.99552 16.3911L13.6089 21.0043C15.0391 22.4348 17.3117 22.5636 18.8947 21.3039C19.3137 20.9704 19.8768 20.9468 20.3291 21.2441L24.8726 24.2297H24.8724C25.2091 24.451 25.3944 24.7666 25.4235 25.1683C25.4526 25.57 25.3148 25.9092 25.0138 26.1765Z" fill="#041E42"/>
<path d="M29.7425 0.257492C29.5777 0.0926971 29.3543 0 29.1213 0H23.8193C23.3338 0 22.9404 0.393448 22.9404 0.878906C22.9404 1.36414 23.3338 1.75758 23.8193 1.75758H27.0035L17.192 11.5945C16.8491 11.938 16.8501 12.4944 17.1936 12.8373C17.365 13.0083 17.5896 13.0939 17.8141 13.0939C18.0393 13.0939 18.2648 13.0078 18.4364 12.8357L28.2424 3.0043L28.2422 6.1805C28.2422 6.66595 28.6356 7.0594 29.1209 7.0594H29.1211C29.6063 7.0594 29.9998 6.66595 29.9998 6.1805L30 0.878677C30 0.645905 29.9075 0.422287 29.7425 0.257492Z" fill="#041E42"/>
</g>
<defs>
<clipPath id="clip0_77_757">
<rect width="30" height="30" fill="white"/>
</clipPath>
</defs>
</svg>
