<svg width="20" height="20" viewBox="0 0 20 20" fill="none" xmlns="http://www.w3.org/2000/svg">
<path d="M10 9.16667C10.8241 9.16667 11.6297 8.92233 12.3149 8.46442C13.0001 8.00662 13.5342 7.35587 13.8495 6.59452C14.1648 5.83316 14.2474 4.99538 14.0866 4.18712C13.9258 3.37888 13.529 2.63644 12.9462 2.05373C12.3636 1.47101 11.6212 1.07417 10.8129 0.913401C10.0046 0.752626 9.16683 0.835143 8.4055 1.1505C7.64412 1.46587 6.99338 1.99993 6.53554 2.68513C6.0777 3.37033 5.83333 4.17592 5.83333 5C5.83466 6.10467 6.27406 7.1637 7.05518 7.94482C7.8363 8.72592 8.89533 9.16533 10 9.16667ZM10 2.5C10.4944 2.5 10.9778 2.64663 11.3889 2.92133C11.8001 3.19603 12.1205 3.58648 12.3097 4.04329C12.4989 4.50011 12.5484 5.00277 12.452 5.48772C12.3555 5.97268 12.1174 6.41814 11.7677 6.76777C11.4182 7.1174 10.9727 7.3555 10.4877 7.45197C10.0027 7.54842 9.50008 7.49892 9.04325 7.3097C8.5865 7.12048 8.19603 6.80005 7.92132 6.38892C7.64662 5.97781 7.5 5.49446 7.5 5C7.5 4.33696 7.76339 3.70108 8.23223 3.23223C8.70108 2.76339 9.337 2.5 10 2.5ZM2.5 18.3333V15C2.50132 13.8953 2.94073 12.8363 3.72185 12.0552C4.50297 11.2741 5.56201 10.8347 6.66666 10.8333H13.3333C14.438 10.8347 15.497 11.2741 16.2782 12.0552C17.0592 12.8363 17.4987 13.8953 17.5 15V18.3333C17.5 18.5543 17.4122 18.7663 17.2559 18.9226C17.0997 19.0788 16.8877 19.1667 16.6667 19.1667C16.4457 19.1667 16.2337 19.0788 16.0774 18.9226C15.9212 18.7663 15.8333 18.5543 15.8333 18.3333V15C15.8333 14.337 15.5699 13.7011 15.1011 13.2322C14.6322 12.7634 13.9963 12.5 13.3333 12.5H6.66666C6.00362 12.5 5.36774 12.7634 4.8989 13.2322C4.43006 13.7011 4.16667 14.337 4.16667 15V18.3333C4.16667 18.5543 4.07887 18.7663 3.92259 18.9226C3.76631 19.0788 3.55435 19.1667 3.33333 19.1667C3.11232 19.1667 2.90036 19.0788 2.74407 18.9226C2.5878 18.7663 2.5 18.5543 2.5 18.3333Z" fill="white"/>
</svg>
