<svg width="35" height="35" viewBox="0 0 35 35" fill="none" xmlns="http://www.w3.org/2000/svg">
<g clip-path="url(#clip0_307_29018)">
<path d="M32.3673 9.49639L32.3663 9.46915C32.351 9.13296 32.3409 8.77728 32.3347 8.38155C32.3062 6.45173 30.7721 4.85544 28.842 4.74756C24.8179 4.52299 21.7049 3.21081 19.045 0.618237L19.0223 0.596608C18.1548 -0.198869 16.846 -0.198869 15.9782 0.596608L15.9555 0.618237C13.2956 3.21081 10.1826 4.52299 6.15852 4.74783C4.2287 4.85544 2.69436 6.45173 2.66579 8.38181C2.65991 8.77488 2.6495 9.13056 2.63428 9.46915L2.63268 9.53244C2.55444 13.6359 2.45724 18.7428 4.16569 23.3781C5.10509 25.9272 6.52782 28.143 8.39407 29.9644C10.5196 32.0386 13.3037 33.6854 16.6687 34.8587C16.7782 34.8969 16.892 34.9279 17.0079 34.9511C17.1713 34.9837 17.3358 35 17.5003 35C17.6648 35 17.8295 34.9837 17.9927 34.9511C18.1086 34.9279 18.2231 34.8966 18.3331 34.8582C21.6942 33.6827 24.4753 32.0352 26.599 29.9612C28.4644 28.1392 29.8872 25.9229 30.8274 23.3733C32.5422 18.7241 32.4453 13.6076 32.3673 9.49639ZM28.9005 22.6627C27.0986 27.5483 23.4203 30.9035 17.6554 32.9196C17.6348 32.9265 17.613 32.9326 17.5903 32.9372C17.5307 32.9489 17.4701 32.9489 17.4097 32.9369C17.3873 32.9324 17.3654 32.9265 17.3451 32.9196C11.5741 30.9072 7.8934 27.5539 6.09283 22.6681C4.51816 18.3954 4.60735 13.7074 4.68612 9.57169L4.68666 9.54873C4.70268 9.19331 4.71336 8.82107 4.71924 8.41199C4.73205 7.55509 5.41458 6.84613 6.27307 6.79834C8.55029 6.67123 10.5509 6.23117 12.3891 5.45305C14.2249 4.676 15.8554 3.58065 17.3732 2.10452C17.4503 2.03936 17.5505 2.03909 17.6274 2.10452C19.1454 3.58065 20.7759 4.676 22.6115 5.45305C24.4497 6.23117 26.4502 6.67123 28.7277 6.79834C29.5862 6.84613 30.2687 7.55509 30.2813 8.41225C30.2874 8.82348 30.2981 9.19571 30.3141 9.54873C30.3926 13.6893 30.4797 18.3809 28.9005 22.6627Z" fill="#041E42"/>
<path d="M17.4997 8.77832C12.69 8.77832 8.77725 12.6914 8.77725 17.5008C8.77725 22.3105 12.69 26.2236 17.4997 26.2236C22.3092 26.2236 26.2222 22.3105 26.2222 17.5008C26.2222 12.6914 22.3092 8.77832 17.4997 8.77832ZM17.4997 24.1696C13.8225 24.1696 10.831 21.1781 10.831 17.5008C10.831 13.8236 13.8225 10.832 17.4997 10.832C21.1767 10.832 24.1683 13.8236 24.1683 17.5008C24.1683 21.1781 21.1767 24.1696 17.4997 24.1696Z" fill="#041E42"/>
<path d="M20.0066 14.7922L15.9552 18.8436L14.8556 17.7439C14.4545 17.3429 13.8043 17.3429 13.4033 17.7439C13.0024 18.145 13.0024 18.7952 13.4033 19.196L15.2292 21.022C15.4297 21.2225 15.6925 21.3227 15.9552 21.3227C16.218 21.3227 16.4808 21.2225 16.6813 21.022L21.459 16.2443C21.8598 15.8432 21.8598 15.193 21.459 14.7922C21.0579 14.3909 20.4077 14.3909 20.0066 14.7922Z" fill="#041E42"/>
</g>
<defs>
<clipPath id="clip0_307_29018">
<rect width="35" height="35" fill="white"/>
</clipPath>
</defs>
</svg>
