<svg width="16" height="16" viewBox="0 0 16 16" fill="none" xmlns="http://www.w3.org/2000/svg">
<path fill-rule="evenodd" clip-rule="evenodd" d="M8.00153 6.42676C7.1136 6.42676 6.39355 7.14635 6.39355 8.03475C6.39355 8.92262 7.11367 9.64275 8.00153 9.64275C8.8894 9.64275 9.60953 8.92262 9.60953 8.03475C9.60953 7.14635 8.88953 6.42676 8.00153 6.42676ZM5.39355 8.03475C5.39355 6.59384 6.56151 5.42676 8.00153 5.42676C9.4416 5.42676 10.6095 6.59384 10.6095 8.03475C10.6095 9.47488 9.44167 10.6428 8.00153 10.6428C6.56141 10.6428 5.39355 9.47488 5.39355 8.03475Z" fill="#041E42"/>
<path fill-rule="evenodd" clip-rule="evenodd" d="M3.31718 4.39916C4.51345 3.38778 6.16732 2.66699 8.00147 2.66699C9.83527 2.66699 11.4891 3.38721 12.6855 4.39836C13.8689 5.39849 14.6695 6.74298 14.6695 8.03498C14.6695 9.32698 13.8689 10.6714 12.6855 11.6716C11.4891 12.6828 9.83527 13.403 8.00147 13.403C6.16732 13.403 4.51345 12.6822 3.31718 11.6708C2.134 10.6704 1.3335 9.32598 1.3335 8.03498C1.3335 6.74398 2.134 5.3995 3.31718 4.39916ZM3.96282 5.16281C2.91367 6.04982 2.3335 7.13931 2.3335 8.03498C2.3335 8.93065 2.91367 10.0202 3.96282 10.9072C4.99888 11.7831 6.42901 12.403 8.00147 12.403C9.57374 12.403 11.0039 11.7835 12.04 10.9078C13.0891 10.0212 13.6695 8.93165 13.6695 8.03498C13.6695 7.13831 13.0891 6.04882 12.04 5.16212C11.0039 4.28643 9.57374 3.66699 8.00147 3.66699C6.42901 3.66699 4.99888 4.28687 3.96282 5.16281Z" fill="#041E42"/>
</svg>
