<svg width="10" height="10" viewBox="0 0 10 10" fill="none" xmlns="http://www.w3.org/2000/svg">
<g clip-path="url(#clip0_305_18057)">
<path d="M9.97385 3.83561C9.90801 3.63312 9.72841 3.48977 9.51677 3.47062L6.63006 3.20854L5.48922 0.537603C5.40499 0.341372 5.21333 0.214722 5.00001 0.214722C4.78669 0.214722 4.59496 0.341372 4.51127 0.537603L3.37042 3.20854L0.48326 3.47062C0.271617 3.49015 0.0923996 3.63351 0.0261753 3.83561C-0.0396675 4.0381 0.0211398 4.26019 0.181207 4.40058L2.36333 6.31398L1.71993 9.14774C1.67286 9.3561 1.75373 9.57156 1.92661 9.69653C2.01954 9.76405 2.12872 9.79777 2.23828 9.79777C2.33243 9.79777 2.42665 9.77275 2.51081 9.72239L5.00001 8.23403L7.48876 9.72239C7.67134 9.83149 7.90091 9.8215 8.07341 9.69653C8.2463 9.57156 8.32717 9.3561 8.2801 9.14774L7.6367 6.31398L9.81882 4.40058C9.97881 4.26019 10.0397 4.03856 9.97385 3.83561Z" fill="#F5C34B"/>
</g>
<defs>
<clipPath id="clip0_305_18057">
<rect width="10" height="10" fill="white"/>
</clipPath>
</defs>
</svg>
