<svg width="31" height="35" viewBox="0 0 31 35" fill="none" xmlns="http://www.w3.org/2000/svg">
<path d="M30.3673 9.49633L30.3663 9.46909C30.351 9.1329 30.3409 8.77722 30.3347 8.38148C30.3062 6.45167 28.7721 4.85538 26.842 4.7475C22.8179 4.52293 19.7049 3.21075 17.045 0.618176L17.0223 0.596546C16.1548 -0.19893 14.8461 -0.19893 13.9782 0.596546L13.9555 0.618176C11.2956 3.21075 8.18264 4.52293 4.15852 4.74777C2.22871 4.85538 0.694369 6.45167 0.665797 8.38175C0.659922 8.77482 0.649508 9.1305 0.634288 9.46909L0.632686 9.53238C0.554446 13.6358 0.457248 18.7427 2.16569 23.378C3.1051 25.9271 4.52782 28.1429 6.39408 29.9643C8.51963 32.0386 11.3037 33.6853 14.6687 34.8587C14.7782 34.8968 14.892 34.9278 15.0079 34.951C15.1713 34.9836 15.3358 34.9999 15.5003 34.9999C15.6648 34.9999 15.8295 34.9836 15.9927 34.951C16.1086 34.9278 16.2231 34.8966 16.3331 34.8581C19.6942 33.6827 22.4753 32.0351 24.599 29.9611C26.4644 28.1392 27.8872 25.9228 28.8274 23.3732C30.5422 18.724 30.4453 13.6075 30.3673 9.49633ZM26.9005 22.6627C25.0986 27.5482 21.4203 30.9034 15.6554 32.9195C15.6349 32.9264 15.613 32.9326 15.5903 32.9371C15.5307 32.9489 15.4701 32.9489 15.4098 32.9369C15.3873 32.9323 15.3654 32.9264 15.3451 32.9195C9.57412 30.9072 5.8934 27.5538 4.09283 22.668C2.51817 18.3953 2.60736 13.7074 2.68613 9.57163L2.68667 9.54866C2.70269 9.19325 2.71337 8.82101 2.71924 8.41193C2.73206 7.55503 3.41458 6.84607 4.27308 6.79827C6.55029 6.67117 8.55087 6.23111 10.3891 5.45299C12.2249 4.67593 13.8554 3.58059 15.3732 2.10445C15.4503 2.0393 15.5505 2.03903 15.6274 2.10445C17.1454 3.58059 18.7759 4.67593 20.6115 5.45299C22.4497 6.23111 24.4503 6.67117 26.7277 6.79827C27.5862 6.84607 28.2688 7.55503 28.2813 8.41219C28.2874 8.82342 28.2981 9.19565 28.3141 9.54866C28.3927 13.6892 28.4797 18.3809 26.9005 22.6627Z" fill="#041E42"/>
<path d="M15.4998 8.77802C10.6901 8.77802 6.77728 12.6911 6.77728 17.5005C6.77728 22.3102 10.6901 26.2233 15.4998 26.2233C20.3092 26.2233 24.2223 22.3102 24.2223 17.5005C24.2223 12.6911 20.3092 8.77802 15.4998 8.77802ZM15.4998 24.1693C11.8225 24.1693 8.831 21.1778 8.831 17.5005C8.831 13.8233 11.8225 10.8317 15.4998 10.8317C19.1768 10.8317 22.1683 13.8233 22.1683 17.5005C22.1683 21.1778 19.1768 24.1693 15.4998 24.1693Z" fill="#041E42"/>
<path d="M18.0066 14.7926L13.9553 18.8439L12.8556 17.7443C12.4546 17.3432 11.8043 17.3432 11.4033 17.7443C11.0025 18.1454 11.0025 18.7956 11.4033 19.1964L13.2292 21.0224C13.4298 21.2229 13.6925 21.323 13.9553 21.323C14.218 21.323 14.4808 21.2229 14.6813 21.0224L19.459 16.2447C19.8598 15.8436 19.8598 15.1934 19.459 14.7926C19.0579 14.3912 18.4077 14.3912 18.0066 14.7926Z" fill="#041E42"/>
</svg>
