<svg width="38" height="25" viewBox="0 0 38 25" fill="none" xmlns="http://www.w3.org/2000/svg">
<g clip-path="url(#clip0_77_851)">
<path d="M35 0.100098H3C1.3 0.100098 0 1.4001 0 3.1001V21.1001C0 22.8001 1.4 24.1001 3 24.1001H35C36.7 24.1001 38 22.8001 38 21.1001V3.1001C38 1.4001 36.6 0.100098 35 0.100098Z" fill="#F3F5F6"/>
<path d="M35 1.1001C36.1 1.1001 37 2.0001 37 3.1001V21.1001C37 22.2001 36.1 23.1001 35 23.1001H3C1.9 23.1001 1 22.2001 1 21.1001V3.1001C1 2.0001 1.9 1.1001 3 1.1001H35Z" fill="white"/>
<path d="M28.3 10.2001H28C27.6 11.2001 27.3 11.7001 27 13.2001H28.9C28.6 11.7001 28.6 11.0001 28.3 10.2001ZM31.2 16.1001H29.5C29.4 16.1001 29.4 16.1001 29.3 16.0001L29.1 15.1001L29 14.9001H26.6C26.5 14.9001 26.4 14.9001 26.4 15.1001L26.1 16.0001C26.1 16.1001 26 16.1001 26 16.1001H23.9L24.1 15.6001L27 8.8001C27 8.3001 27.3 8.1001 27.8 8.1001H29.3C29.4 8.1001 29.5 8.1001 29.5 8.3001L30.9 14.8001C31 15.2001 31.1 15.5001 31.1 15.9001C31.2 16.0001 31.2 16.0001 31.2 16.1001ZM17.8 15.8001L18.2 14.0001C18.3 14.0001 18.4 14.1001 18.4 14.1001C19.1 14.4001 19.8 14.6001 20.5 14.5001C20.7 14.5001 21 14.4001 21.2 14.3001C21.7 14.1001 21.7 13.6001 21.3 13.2001C21.1 13.0001 20.8 12.9001 20.5 12.7001C20.1 12.5001 19.7 12.3001 19.4 12.0001C18.2 11.0001 18.6 9.6001 19.3 8.9001C19.9 8.5001 20.2 8.1001 21 8.1001C22.2 8.1001 23.5 8.1001 24.1 8.3001H24.2C24.1 8.9001 24 9.4001 23.8 10.0001C23.3 9.8001 22.8 9.6001 22.3 9.6001C22 9.6001 21.7 9.6001 21.4 9.7001C21.2 9.7001 21.1 9.8001 21 9.9001C20.8 10.1001 20.8 10.4001 21 10.6001L21.5 11.0001C21.9 11.2001 22.3 11.4001 22.6 11.6001C23.1 11.9001 23.6 12.4001 23.7 13.0001C23.9 13.9001 23.6 14.7001 22.8 15.3001C22.3 15.7001 22.1 15.9001 21.4 15.9001C20 15.9001 18.9 16.0001 18 15.7001C17.9 15.9001 17.9 15.9001 17.8 15.8001ZM14.3 16.1001C14.4 15.4001 14.4 15.4001 14.5 15.1001C15 12.9001 15.5 10.6001 15.9 8.4001C16 8.2001 16 8.1001 16.2 8.1001H18C17.8 9.3001 17.6 10.2001 17.3 11.3001C17 12.8001 16.7 14.3001 16.3 15.8001C16.3 16.0001 16.2 16.0001 16 16.0001L14.3 16.1001ZM5 8.3001C5 8.2001 5.2 8.1001 5.3 8.1001H8.7C9.2 8.1001 9.6 8.4001 9.7 8.9001L10.6 13.3001C10.6 13.4001 10.6 13.4001 10.7 13.5001C10.7 13.4001 10.8 13.4001 10.8 13.4001L12.9 8.3001C12.8 8.2001 12.9 8.1001 13 8.1001H15.1C15.1 8.2001 15.1 8.2001 15 8.3001L11.9 15.6001C11.8 15.8001 11.8 15.9001 11.7 16.0001C11.6 16.1001 11.4 16.0001 11.2 16.0001H9.7C9.6 16.0001 9.5 16.0001 9.5 15.8001L7.9 9.6001C7.7 9.4001 7.4 9.1001 7 9.0001C6.4 8.7001 5.3 8.5001 5.1 8.5001L5 8.3001Z" fill="#142688"/>
</g>
<defs>
<clipPath id="clip0_77_851">
<rect width="38" height="24" fill="white" transform="translate(0 0.100098)"/>
</clipPath>
</defs>
</svg>
